<mxfile host="app.diagrams.net" modified="2024-02-07T20:19:56.682Z" agent="Mozilla/5.0 (Macintosh; Intel Mac OS X 10_15_7) AppleWebKit/537.36 (KHTML, like Gecko) Chrome/121.0.0.0 Safari/537.36" etag="WTnCsA4yKxL9lImc8wDs" version="23.0.2" type="github">
  <diagram name="[0] vlan" id="xj_hUvdLybhZtWC5sHic">
    <mxGraphModel dx="2440" dy="1319" grid="0" gridSize="5" guides="1" tooltips="1" connect="1" arrows="1" fold="1" page="1" pageScale="1" pageWidth="827" pageHeight="1169" background="#4d5766" math="0" shadow="0">
      <root>
        <mxCell id="Hvadh7sFhpXeqMrMuhxV-0" />
        <mxCell id="Hvadh7sFhpXeqMrMuhxV-1" parent="Hvadh7sFhpXeqMrMuhxV-0" />
        <mxCell id="kvwh2v-Nk0NHKlyejy3k-1" value="" style="group" vertex="1" connectable="0" parent="Hvadh7sFhpXeqMrMuhxV-1">
          <mxGeometry x="150" y="359" width="52.25" height="54.85000000000002" as="geometry" />
        </mxCell>
        <mxCell id="kvwh2v-Nk0NHKlyejy3k-2" value="" style="rounded=1;whiteSpace=wrap;html=1;strokeColor=none;arcSize=2;" vertex="1" parent="kvwh2v-Nk0NHKlyejy3k-1">
          <mxGeometry x="6" y="2" width="38" height="22" as="geometry" />
        </mxCell>
        <mxCell id="kvwh2v-Nk0NHKlyejy3k-3" value="" style="shape=image;editableCssRules=\.color;verticalLabelPosition=bottom;labelBackgroundColor=#ffffff;verticalAlign=top;aspect=fixed;imageAspect=0;image=data:image/svg+xml,PHN2ZyB4bWxucz0iaHR0cDovL3d3dy53My5vcmcvMjAwMC9zdmciIHhtbG5zOnhsaW5rPSJodHRwOi8vd3d3LnczLm9yZy8xOTk5L3hsaW5rIiB2aWV3Qm94PSIwIDAgMTMxIDgxIiBmaWxsPSIjZmZmIiBmaWxsLXJ1bGU9ImV2ZW5vZGQiIHN0cm9rZT0iIzAwMCIgc3Ryb2tlLWxpbmVjYXA9InJvdW5kIiBzdHJva2UtbGluZWpvaW49InJvdW5kIj48dXNlIHhsaW5rOmhyZWY9IiNBIiB4PSIuNSIgeT0iLjUiLz48c3ltYm9sIGlkPSJBIiBvdmVyZmxvdz0idmlzaWJsZSI+PHBhdGggY2xhc3M9ImNvbG9yIiBkPSJNMTE5LjA3OCA2Mi43MDNWNy4yNzVjMC0yLjc0Ni0yLjU0LTcuMjc1LTUuNTgtNy4yNzVIMTYuNDc1Yy0zLjA0IDAtNi4wOCA0LjUzLTYuMDggNy4yNzV2NTUuNDI3Qy0uNDk4IDc0LjI0NC4wMDQgNzQuMjQ0LjAwNCA3NC4yNDQuMDA0IDc3LjUxNiAzLjA0NCA4MCA2Ljg1MiA4MGgxMTYuM2MzLjgwOCAwIDYuODQ4LTIuNzQ3IDYuODQ4LTUuNzU2bC0xMC45MjItMTEuNTR6TTczLjk3NSA3NS4yMzdoLTIwLjI4Yy0xLjAwNCAwLTIuMDM3LS40OTctMi4wMzctLjk5M2wyLjI3My0zLjc3YzAtLjQ5Ny43NjctLjc2IDEuNzctLjc2SDcxLjkxYy43NjcgMCAxLjUzNS4yNjMgMS41MzUuNzZsMi41NCAzLjc3Yy4wMy43My0xLjAwNC45OTMtMi4wMDcuOTkzaDB6bTQwLjI5Mi0xMi43OThIMTUuMjA1VjcuNzcyYzAtMS4yNTYgMS4yNy0zLjAxIDIuNzc1LTMuMDFoOTMuNzVjMS41MzUgMCAyLjU0IDEuNzUzIDIuNTQgM1Y2Mi40NHoiIGZpbGw9IiMyYTMyODIiIHN0cm9rZT0ibm9uZSIvPjwvc3ltYm9sPjxzdHlsZSB0eXBlPSJ0ZXh0L2NzcyI+LmNvbG9yIHsgZmlsbDogcmdiKDAsIDE3LCA1Myk7IH0gPC9zdHlsZT48L3N2Zz4=;" vertex="1" parent="kvwh2v-Nk0NHKlyejy3k-1">
          <mxGeometry width="49.89" height="30.85" as="geometry" />
        </mxCell>
        <mxCell id="kvwh2v-Nk0NHKlyejy3k-4" value="&lt;font style=&quot;font-size: 12px;&quot;&gt;user&lt;/font&gt;" style="text;html=1;align=center;verticalAlign=middle;resizable=0;points=[];autosize=1;fontSize=12;fontFamily=Google Sans;fontStyle=0;fontColor=#FFFFFF;fontSource=https%3A%2F%2Ffonts.googleapis.com%2Fcss%3Ffamily%3DGoogle%2BSans;" vertex="1" parent="kvwh2v-Nk0NHKlyejy3k-1">
          <mxGeometry x="5.25" y="28.850000000000023" width="42" height="26" as="geometry" />
        </mxCell>
        <mxCell id="kvwh2v-Nk0NHKlyejy3k-7" value="" style="shape=image;verticalLabelPosition=bottom;labelBackgroundColor=default;verticalAlign=top;aspect=fixed;imageAspect=0;image=data:image/png,iVBORw0KGgoAAAANSUhEUgAAADwAAAA8CAYAAAA6/NlyAAAVMUlEQVR42tWZBZAcyZX3f1lVzTPdA2LWrVbLvCYtm5mt+46ZmfludMxsZralIzNbMqPCG15rcbQr7Yhnprm7KDPf111dsTNb0TJjRbzIjKquUfzy//7vZZYU3yOXiCiAfftQc+yDuT8TkkvJ1/A3Kt/1kPv3i8sL9rsg6qv4fVGkPVv369vOtVoX3nusc8ldC/UrRKSUPi9/d0KKuLfOHfTO97zX6236/D31G9/96cZPvvFD9b99yTuX9//jfy9/8s/fXL/v91+7uPgbr1rq/fLLlszPvmTZ/OSLG/JP/718/30nG9cAeN9FoM7LDuMqhQFlVj87dqa5855TXHe2JTf809sbj1zsyqWNqDi1pMss9OH2viUOY9AazCCsAbGgBKyOOLdup8Py60XkOvXdAPof75nP/epTLwxX3z9yvHPZ/Yv2cSfb8pRTTXnMmbhWm+8oPtzQ0OlBHFmQCETWOqgJhfIUjgNKBAWoyMKsB4ebon96l+O8/Fequ7zvZOq+5z3klSKCEax0uxved6954okOz33bEfv4c1KtfGkZPniqA+2lGGy81RGn4iiXHG5spehbRWCEJQEjMgiwKXEkCquJUeX8zunwKBRPf0eAjxyRIaiASkCPnljc/flj3g//x6f0DzZV7YIFH754qsfty4thNRRzoZEcSjxfyHVjqItFREhXDoR0Dm7q00Bghycc64i8YHeeGy/Wf66UitS3O31/8wCFf9mrfIBms7nzbYftLy70nB/tl2rrzvSEhcWmqXdM2O+aXBDZXN8ofCsYKwmcSvkQEmhhBXblElzlkMcGdWeq+MI9/Q/80vM2PBHA+zarakD5w/bw1kON3/jHD9hf6pamN3aMoXumFbW72i43TX4AXu7FFmsFsTZlkERMm85JxgypgAL6wK6csfPLUvj5a3wef3XpjwDm5sT5tgC/9B2nypddpvoAn72r8dw/P1D/sxMydWXsAZ1WHATWnm7p/ANNq9qBRRmLWLAJZCJpyiYPgxwnrwVmHcV8IMHshjXl67Z13nDRBbXPAfzZnyHet7owbf3NE8Wfe8am/mBefe37lv/j5Z92f7ReqDHhtMWNJDrXMvmjdaMWewYbJ5WH2KagpLBZ0BWVV4BTdQNgi4NZ7lB+3s46j7q4/K/pbxyllFXfQlhPKQCl73+wcfPrP6Zf9en+zAWlQp+1RRP1fOMdq1tnoaXpBxathdhYbAK3ksKwAp4ds/AWmHAUy5o+ldnyCx/dfdsv7d36bID9+/e7e/fuNd8ShfcfOZIfVkSAD3x6+df/9l36Xw7bKpdOtc1kHjkz8OkDdcNSz+CHlii2mFTVFUVTolVKr4bLAisgFph2GdQBm//xC2Iu3VZ4AyTudV7wghdYAO+bDyv5vZeNYN/8/sVXvPjwxE/Nm4BHr/djhXjHlqxaaGqaA9j+EFYnsCuKiqyCzABm/YusYhaKStGObERlsrhzqnf3rY+a/tCoWP3ZMJ31Nx14bv+RBFZEii9/++LbX3jn7BN8Vbc3bXIliCV3vG441dK0+wZ/NSwgKfQoGAM8DnRFeY2wwVEsdC03by+wbZ39P6WmGmmxsnNz8E0F/tmXSm5ubwJb+7f/Wnrfvz0w+6iNxXq0Z5PndQLrHlvSnGprOr4hCC2xEWwKmIXNQmbTO6u0QhAg56AJVXFXuc7OLZPvJ7kOeqm63yTgBPbzuZf9nIpFmtP/vH/xg783P33tnlrDv3qDW2r5lqOLMSeamq5vVvw6HnQFJgsnWdCHt6ISilORxExMehunojtuuW7DF5KW+NJb1c/9HHzTgOcOijd32xBWqv92YPGDv3XP1LU3TDX712zMlXuB5dhyzPF6TLdviLXNqDoeNIks5CpAyVRqI8KMOwDui7pmk8e6Kf0JpVQTYHoaC98k4IMHD3q33aa0iLgv/r+lt//RvdPXXlNp9K7blK8M4U41NQsNfX5YSwYuM0/BHgaYbU/pn/BcMYS2sKMcsHHW+QxpOu/dq/Q3BVhEHqp8r33P0hv+4+6ZW6bdpd6erfmKQljqGk4OgNs9jdYWEQs2hU1VHRer1ZRxGTDGww4Qawxuzp0t9LvbNs/eAfCCuXXOgTn4pgArdUAB/N9Hlv7yhZ+f+n93+Yv+z1yUr+QcaPYNpxqapY4mjAw2BU0A7PnUzLamdMxAZkcRKCo4HYulUGamYh541BUbH0iAL4UDfBOA5/ZLfliRP3Ok/oMvPFj8ow+cXdQ/cmm+UC4o+qFhsC/mTGtUpKy1I1g7TlW7Agqwon62cI2fp9OiC+1Q1PYZl1rFziul6gBr115q+UaBjwx2UYODQBSGnUv+8DX9177uqOZZuz2qZceJYsvZ9gC4oWl0NUabtBqnMKyCtCtAMs7PWS+fpyVZhJwoITLu5oKlOuEcJU3CW2/lGwNOfRsBvOht/bf809GSd8MWP1o/lcsrsUPfJuqe62iiOAObgGZUFcZ72I6r1ONHJYJSCLH1pnIRUxP54+kZbdh/428IWD11PgeE/3do6d/2fbxy5Uy5FX/fmlw+71iafcu59gA2OQys+BY7NoXP72c7vgdnU331HtpYLKKcshsyVZ08CcCurQ7z8HUD7//kQmnvnq3+0ePNx/3V28yvfqHZ5Jm7PG+yCL3QstgxgxhuGzXG2BGbzYCmaS3ZRRDScTxcGmNbkhLQCkG5lFwTTtfUIsCP/3BJvWbu6wRO+u0AVkTcv3rDuX9/1YkCj97gmHWTjhvHwnLXJhW50TVEOgF7OKwdjSKsAl8BTJ9nFM0EjIV2gNCQSF3IS29mqtAE2AHA1wl829t35QD9P4eW5979YOVSJ9+RHTM5x1Ww3DOD0NS7ml5gECOIZGGH97JeTmKMsvb8sGP21K4C30oCnHPoTc8WugAzj9wiXztwoq4UB7spf1iVf+Nl3d/4ZEvxuC2unSwot+MbGj2TKNvuG0wKK3aMsuMKl836154HdLyvJRFWEZvRs4Kn4g1TU9GX4/G+clXeFwG8+j39v3rfUrWycaJjNtU8J9KWxgCyOYyeJojTfptRaCysPY9/7RjfZrwsmU2HUgJmOBFcVyIgrcz3fe3A/3KAAsz5R+ZbT/m7t/Wfc9Tv87QdrngOqtG1tPo2Och3gyFsxo82k9oZP69O4ayy6f2xoNkFUIoRsGtQIhoYBhu62+VrAU6/SSkf4H2Hg9/8cKvKzmonnq24uSCytAND2x+lstY2VdOOaTNjYTPPsmHHgGaeIaQSgx2OFqzKYnz1wHv/5URSqD55e/3p//7+8PEngh7P2ugoB0UvNPQCy9DDfpTCZlpQtgePg01TeEzltoiMB80uqDhq9ExrJOFJmS77aoEz6n78zugXPtWrcUG1FdXKuXyk7QB4GKNUtgkIq6BWpTL24dvJrLJkFyNdrLFq27FnZrEAkgAb4+SBHMCZ43n1VQPftu+YB+iP37H8hJe9L3zy8V6PZ+/ylAL6kaUfDtW1BNHqVE7nKecKXKbP2jHgKVAWFJuxSMYyCsGmsmpjCGOdazabCTDzX6XCIuIqpQKAw3frHzvcn3E2VRvhZDFXiFN1O/5KoRpfTe2YvTOZ+xnYDOh5+zWjkHRuEIqI6oaKOHbKp5aCCYB6/cRXp/Cv/se8B5gj9zWueeF7w2ccafd4+g5HAfjRSNlWf7W6q1vQanAyfdZm1GUVbApjs8qujCu99+F2MEDFGQBHMWHolZv1bhXgGMfGKzzmNBQCfPa++Pvv6k1VKS5H1XI+b4ylF9mkMncCg2R7Jnz5LxljVE2VXQVrMj06iRVFxY7tyzkHRWgIwnyp2QlmAV7zhvXyFYFfdhg30UW66//0Vd3nHaxHPHaTax1H4YepdwNLpLOHgOzpJ5PKdsyzsZ7NgKb3JevfFfBkcEChNWGs6LbjdSMPf3YssLNKXfVz1x+wAO/9ZPCE+zvlXdiOXVtxEnWDOAFOIgHNHtUsQFb1VQB8GdXtat+uzCUNrAGbjEms/p2MnikwputDs9PfTHLNmSHTeYEPJPO9BmD+tHnOB5pFrph1A9dzHG0k8W83GIErxno3E4y/l31nHCw2fZ7CZWL1O2oQ1hqHnJjlrqHTCbelSObAAZzzAu/dd0gBPHi2ecH8WXvbuU6HnTXlWSsDSHkona0dd5IZq+6YE85Dyo2p5pLxq3n4b2z2nRXgyFrIW3u0FdLthttFxAVoNA47Yz08lH5wGYDP3Wluu9+fmqbQiIr5XE4b+5C6/chmlOKrVTcTjO3D2UUYD5p6F0mBBV+DKgrdekinF20H1gBnp6dL41P6wIEDTioRD5yJn/GOtsOjpx3NsGQP1U2BYy2ohyD58l8UZXwI56/YqfpZL2dgLSKpl9Pn2lq25HE40uPcud7mz372nq0jriOMBd6bfrw93WjsWGhwC70O6ytOom4KSy8tVrA6yIKn4/gD+/nVt6tVG78gaQ+WVNVhOFgcEeLQsNCJXK5SzG5cU2kEsnsEfKfNAnujdMYmvfcOc+ODwVSNYiPMeW5h6F0/Gvk31JIWq9V2HU0UJM9YFelsBXqcuqyCHXOMzPpdpYBWLLGxSGTBhYvX5bl456SrcaJz9Sg/f8/ClcCbYE6newv7EPC+ffsUzFmAE0vmCQc7DtfXlLEowtgkVXkIbszqg/cgELxR08YMwj7Ua0FZScJJVAA10gbJeF4Ng1EINhlJ5iv3HSW4agQZ6FEQGigo9uyeYN2aEkEQc+xEh9vf0zQbbljD9RdvvUpS0EOHcIAV4Dn+DJhDRKp//KqzNze7PdbNKk9bIdRpxDYBE0ZMkw64At0Y4nSb6DEIBVogTmF0Cl1kEAocB1wliCIJbYTQCrG16achm4SbKmtM6uNIw3COpVZxuHp3jalqDhF48GSLxWbI5d9X49rfudCp1qrUpstXNBqNLQwe33vvYfWwlB6yAtx+d/3yU938DhzfFnI5b6BsAhsNgc1IzbIDOQUnQgHfghJqA5JNRYei6+AwArTGST7o9SPD6UDT7aWqRIMwK8UGz4JrwbHpAV5wGWWM6JVita7qsKmWZ+10gZmZEp6naNR7SVZduKPG1ZU8hYKH3/W9fz1wBz92w5rNF26rXTEE/rmf+20Zu7U8etrecH84xbbJaIhTClNgM4gK0Bc4O4Tsa/CEPZtzbJjNUc6DMpZoCJMq5SoXz1G4juC5EIeaMNAJrO/HRNokWROEMa5LomYYaVxlsdYSD+bTEx4Tg6hVXKYqXpItUWxptfu0WiGlgks+7xKGMaEfsnCmSyWv3B++ZWMguUrxyF0nHwO8Cw49zMdeIhNwpiE3faSjuXlaqdjAMJQInciy2LNgLJdNu1x2cZ7LtxUoTXjJIcJEZgCtCEJD0YMwGh0scp5CMRhdhgDJPWMMrgN+aJgoubTaAZ1+TNETolADkqjnOuB6DspRRFFMp9Gl14/wQ02nE7BmoLTWhnqjT7sbcUc94lGbijzxlgt4zPU7pdO1xP3GzSKSH4BGhw4dSn28svGo/smrz11L0KeSd1wrgh9b7u+MPuFcv9bl8i0ltq/1WFd16fmGeADrRSbxW9AXammPXzOTR2uLsZZOT5N3HTqhSVTqtkPagaaYd1hY6DJRdkDHyTftHJZIW/xBDKATpZfaIYEf0ezFbKh52CiiWPTYf3udjXnheTdu4lHXbWPh+DkanZDpagHRobd2usxZ7V1//4mzFwF3fOQjmZSeP97adabrbkaF4jqet9g1NHzLFZMO27cW2b0xT7XsUPZAB5qCWLZvyBOl++rldsy66Rx+YADBmpFSXWvJO4pqyaGQg/U7qtxx1zKXXFBj3gO/F3Lz9Rv44t1LbF1XpFTyOHWyiSA4rqLdchBVZtOGCT79+QWqG6vc8ugd/ISyHP7iCS67ZCM7t0xzya51fO72hUT1Tx1+MNfxTWhCWwp7rVuGwHNzt+l0NykJ8LFFuXrZVsFbio61bUFZ4YaBR3dv8Ng45VEtKDpdTTAA6voGAe5aCLA2USPxbcsPKAzm2FF1LeYU0zPFpLrXCi7dXpx84SxN5FlqxUmROX6mR8fXzEwXUZ5HbapMpZzHy7kUcir5G/MLLXbvnGXXjhkeONmmkHfZvH6Kdjek3uzTaHTpDOZOLj8Yfe49usi5VmhcBiLlu08C/nPVbtIogLd+cOk/v//Dk7+EWQ5+9MJ88fINDltmvaQKnlmKaHRNoqaDRUnaQxmEAsQmizAsSp6rKOQV7W5MPzBJVuSUTfw6BMBoJio5HAdKeQcUKCU022HizSjSVEouVuvk9w6WU2fabFxXGbxXGAAF+EGcLHS1WubcYit550vzdTr9EMTSWu7ylD0b4gsv2pq78dEXtK+5fPs1Sqn7JS1cCfBfvuHs+969VH3i8y6JwjUVVej0jDy4FFPv6aSAzJQdJnKAtomCVhtKRZdS2Un21w5CTskAXJNzYHpiWEGdpFDFsU4qvcLS8zUnT3fo9yPqrYjJSQ/XJVF7ppYbzB2wNonl1kC9ZgBG0+hEFAoOvU6f2ekS9x5rUpvIceexOhMe3HTNOtbPFli/doLpWomrrt49LIzBcj0oFZzuL9z4mCteAigZ7Q/eV3nZhx/1pbaUd8R+P17qGM8YkbWTSs1UHPI5R0QbNVS4FyZtIykyfiBSypFU5zg2YIXZqRxb1+TYOJ1TvV6MH5lETaUUjhJ0GKMUVEsuYg0LJ1voWCfe6/ajZBG1BQ1JtuS8AaQf4yrBxHF6rLOqXHDxHBichgagZYrFPH6gsQzfcYetS504VQ/e+/GTxWffuv4zj7jCeeqePU+uz83NOWp5+cSWTxyvzp/u5AsVJyZfHP0xP7S0B2D9YUXWFm0Ei+ApASEpQg6Qd4V05UBBEGiayz71Zpi8V8hDteJRKrlJdZ4YKDNTzVEueYlHK0U3Sem8O7JIFJvESq5DshiFAUyllEOphJd2u49SkqS2N4BrNHr4fpBskCqVAsWCx33zp8jnXGq1yUT1nFp67NOf/PiDyXoN/++X/ObLte1NeV7g+X2TW2r0vG4ncv1Au5EWx3XEUTZyMeJYJQrEcZxBKKWKJVcNfKvcwXzgQydMFI/J5UBrUVprZS1gLEMKx3HJe0pFWmS4sbCWpMgBAwAlBc+TYdFK1ByE43kixkg+7yX/qLXYVrcnYWCsFZEgiO2WjWuMV/Cs62K0xriea9ZMTWu3UNTh4LrnyOG7f/u3f3sZEMX5LwVIMo4PB2DMfbJjZj7ukuw8M2bn2bAr87FXyqrk/wMYzHheI7OKiQAAAABJRU5ErkJggg==;" vertex="1" parent="kvwh2v-Nk0NHKlyejy3k-1">
          <mxGeometry x="16.939999999999998" y="5" width="16" height="16" as="geometry" />
        </mxCell>
        <mxCell id="kvwh2v-Nk0NHKlyejy3k-8" value="&lt;font color=&quot;#404041&quot; face=&quot;Nokia Pure Text&quot; style=&quot;font-size: 10px&quot;&gt;Wild&lt;br&gt;Network&lt;br&gt;&lt;/font&gt;" style="html=1;fillColor=#f5f5f5;strokeColor=#b1b3b3;gradientDirection=north;strokeWidth=1;shape=mxgraph.networks.cloud;fontColor=#ffffff;align=center;perimeterSpacing=0;" vertex="1" parent="Hvadh7sFhpXeqMrMuhxV-1">
          <mxGeometry x="251" y="345" width="78.5" height="50" as="geometry" />
        </mxCell>
        <mxCell id="kvwh2v-Nk0NHKlyejy3k-9" value="" style="rounded=1;whiteSpace=wrap;html=1;strokeColor=#98A2AE;arcSize=4;fillColor=#EDF3F5;" vertex="1" parent="Hvadh7sFhpXeqMrMuhxV-1">
          <mxGeometry x="377" y="283" width="172" height="174" as="geometry" />
        </mxCell>
        <mxCell id="kvwh2v-Nk0NHKlyejy3k-11" value="" style="rounded=1;whiteSpace=wrap;html=1;strokeColor=#98A2AE;arcSize=21;fillColor=#001135;" vertex="1" parent="Hvadh7sFhpXeqMrMuhxV-1">
          <mxGeometry x="382.86" y="267" width="34.11" height="30" as="geometry" />
        </mxCell>
        <mxCell id="kvwh2v-Nk0NHKlyejy3k-10" value="" style="shape=image;verticalLabelPosition=bottom;verticalAlign=top;imageAspect=0;aspect=fixed;image=data:image/svg+xml,PHN2ZyB4bWxuczpkYz0iaHR0cDovL3B1cmwub3JnL2RjL2VsZW1lbnRzLzEuMS8iIHhtbG5zOmNjPSJodHRwOi8vY3JlYXRpdmVjb21tb25zLm9yZy9ucyMiIHhtbG5zOnJkZj0iaHR0cDovL3d3dy53My5vcmcvMTk5OS8wMi8yMi1yZGYtc3ludGF4LW5zIyIgeG1sbnM6c3ZnPSJodHRwOi8vd3d3LnczLm9yZy8yMDAwL3N2ZyIgeG1sbnM9Imh0dHA6Ly93d3cudzMub3JnLzIwMDAvc3ZnIiB4bWxuczpzb2RpcG9kaT0iaHR0cDovL3NvZGlwb2RpLnNvdXJjZWZvcmdlLm5ldC9EVEQvc29kaXBvZGktMC5kdGQiIHhtbG5zOmlua3NjYXBlPSJodHRwOi8vd3d3Lmlua3NjYXBlLm9yZy9uYW1lc3BhY2VzL2lua3NjYXBlIiBpbmtzY2FwZTp2ZXJzaW9uPSIxLjByYzEgKDA5OTYwZDYsIDIwMjAtMDQtMDkpIiBzb2RpcG9kaTpkb2NuYW1lPSJjb250YWluZXJsYWJfZXhwb3J0X3doaXRlX2luay5zdmciIHZpZXdCb3g9IjkuOTk3OTkzNDY5MjM4MjgxIDEwLjAwNDU3NzYzNjcxODc1IDE1OC44OTk5MzI4NjEzMjgxMiAxMzMuNDE5NDMzNTkzNzUiIHZlcnNpb249IjEuMSIgaGVpZ2h0PSIxMzMuNDE5NDMzNTkzNzUiIHdpZHRoPSIxNTguODk5OTMyODYxMzI4MTIiIGlkPSJzdmciPiYjeGE7ICA8bWV0YWRhdGEgaWQ9Im1ldGFkYXRhODg2Ij4mI3hhOyAgICA8cmRmOnJkZj4mI3hhOyAgICAgIDxjYzp3b3JrIHJkZjphYm91dD0iIj4mI3hhOyAgICAgICAgPGRjOmZvcm1hdD5pbWFnZS9zdmcreG1sPC9kYzpmb3JtYXQ+JiN4YTsgICAgICAgIDxkYzp0eXBlIHJkZjpyZXNvdXJjZT0iaHR0cDovL3B1cmwub3JnL2RjL2RjbWl0eXBlL1N0aWxsSW1hZ2UiLz4mI3hhOyAgICAgICAgPGRjOnRpdGxlLz4mI3hhOyAgICAgIDwvY2M6d29yaz4mI3hhOyAgICA8L3JkZjpyZGY+JiN4YTsgIDwvbWV0YWRhdGE+JiN4YTsgIDxkZWZzIGlkPSJkZWZzODg0Ii8+JiN4YTsgIDxzb2RpcG9kaTpuYW1lZHZpZXcgaW5rc2NhcGU6Y3VycmVudC1sYXllcj0iZzg3OSIgaW5rc2NhcGU6d2luZG93LW1heGltaXplZD0iMCIgaW5rc2NhcGU6d2luZG93LXk9IjIzIiBpbmtzY2FwZTp3aW5kb3cteD0iMCIgaW5rc2NhcGU6Y3k9IjEzMC4yNTY0MSIgaW5rc2NhcGU6Y3g9IjE2Ny45MjMzIiBpbmtzY2FwZTp6b29tPSIyLjU0MDA2NjYiIHNob3dncmlkPSJmYWxzZSIgaWQ9Im5hbWVkdmlldzg4MiIgaW5rc2NhcGU6d2luZG93LWhlaWdodD0iMTIyMiIgaW5rc2NhcGU6d2luZG93LXdpZHRoPSIyMDA4IiBpbmtzY2FwZTpwYWdlc2hhZG93PSIyIiBpbmtzY2FwZTpwYWdlb3BhY2l0eT0iMCIgZ3VpZGV0b2xlcmFuY2U9IjEwIiBncmlkdG9sZXJhbmNlPSIxMCIgb2JqZWN0dG9sZXJhbmNlPSIxMCIgYm9yZGVyb3BhY2l0eT0iMSIgYm9yZGVyY29sb3I9IiM2NjY2NjYiIHBhZ2Vjb2xvcj0iI2ZmZmZmZiIvPiYjeGE7ICA8ZyBpZD0iZzg0MyIgdHJhbnNmb3JtPSJ0cmFuc2xhdGUoLTEwNC4yNiAtOTcuNjU0KSI+JiN4YTsgICAgPGcgaWQ9Imc4MzkiIHN0cm9rZS13aWR0aD0iLjgiIHN0cm9rZT0iIzAwYzlmZiIgZmlsbD0ibm9uZSI+JiN4YTsgICAgICA8cGF0aCBpZD0icGF0aDgzMyIgZD0ibTE5Ny4wOSAxNjUuODZhMS43NTc4IDEuNzgyOSAwIDAgMS0xLjc1NzggMS43ODI5IDEuNzU3OCAxLjc4MjkgMCAwIDEtMS43NTc4LTEuNzgyOSAxLjc1NzggMS43ODI5IDAgMCAxIDEuNzU3OC0xLjc4MjkgMS43NTc4IDEuNzgyOSAwIDAgMSAxLjc1NzggMS43ODI5Ii8+JiN4YTsgICAgICA8cGF0aCBpZD0icGF0aDgzNSIgZD0ibTE4OS42MiAxNjEuNjZhMi43NTg4IDIuNjUzIDAgMCAxLTIuNzU4OCAyLjY1MyAyLjc1ODggMi42NTMgMCAwIDEtMi43NTg4LTIuNjUzIDIuNzU4OCAyLjY1MyAwIDAgMSAyLjc1ODgtMi42NTMgMi43NTg4IDIuNjUzIDAgMCAxIDIuNzU4OCAyLjY1MyIvPiYjeGE7ICAgICAgPHBhdGggaWQ9InBhdGg4MzciIGQ9Im0xOTYuNDkgMTUyLjQxYTQuMTA0MyAzLjk2MSAwIDAgMS00LjEwNDMgMy45NjEgNC4xMDQzIDMuOTYxIDAgMCAxLTQuMTA0My0zLjk2MSA0LjEwNDMgMy45NjEgMCAwIDEgNC4xMDQzLTMuOTYxIDQuMTA0MyAzLjk2MSAwIDAgMSA0LjEwNDMgMy45NjEiLz4mI3hhOyAgICA8L2c+JiN4YTsgICAgPHBhdGggaWQ9InBhdGg4NDEiIGZpbGw9IiMwMGM5ZmYiIGQ9Im0xODQuNjkgMTY4Ljk2Yy0wLjUwNSAwLjIxMy0xLjUyOCAwLjg1Mi0yLjI3MyAxLjQyLTEuNDMgMS4wOTEtMy4xNTYgMS4zNjItNS4zMDggMC44MzQtMS41NTMtMC4zODEtMS42NjMgMC4wNjgtMC41OSAyLjQwMSA2LjYzMSAxNC40MiAyNi44NDggMTQuODk2IDMzLjg4IDAuNzk5IDEuNTc5LTMuMTY1IDEuNDMzLTMuNzItMC44MTgtMy4wOTgtMS45IDAuNTI0LTMuMTggMC4yMjctNC45NzItMS4xNTctMi40MzYtMS44ODEtNS42OTYtMS44ODMtNy4zOTYtNGUtMyAtMS43MDIgMS44ODEtNS4zNjEgMS43OTMtNy40NzctMC4xNzgtMS4xOTktMS4xMTgtMy42MzktMS42MDktNS4wNDYtMS4wMTciLz4mI3hhOyAgPC9nPiYjeGE7ICA8ZyBpZD0iZzg3NSIgdHJhbnNmb3JtPSJ0cmFuc2xhdGUoLTEwNC4yNiwtOTcuNjU0KSI+JiN4YTsgICAgPGcgaWQ9Imc4NzMiIGFyaWEtbGFiZWw9IkNPTlRBSU5FUmxhYiI+JiN4YTsgICAgICA8ZyBzdHlsZT0iZmlsbDojZmZmZmZmO2ZpbGwtb3BhY2l0eToxIiBpZD0iZzg2MyIgZmlsbD0iIzAwMTEzNSI+JiN4YTsgICAgICAgIDxwYXRoIGlua3NjYXBlOmNvbm5lY3Rvci1jdXJ2YXR1cmU9IjAiIGlkPSJwYXRoODQ1IiBzdHlsZT0iZm9udC12YXJpYW50LWxpZ2F0dXJlczpub3JtYWw7Zm9udC12YXJpYW50LWNhcHM6bm9ybWFsO2ZvbnQtdmFyaWFudC1udW1lcmljOm5vcm1hbDtmb250LXZhcmlhbnQtZWFzdC1hc2lhbjpub3JtYWw7ZmlsbDojZmZmZmZmO2ZpbGwtb3BhY2l0eToxIiBkPSJtIDEyMS41MywyMjQuOSBxIC0yLjcxMiwwIC00LjIsMS44OTYgLTEuNDg4LDEuODcyIC0xLjQ4OCw1LjU2OCAwLDMuNzkyIDEuNDg4LDUuNTQ0IDEuNDg4LDEuNzI4IDQuMiwxLjcyOCAwLjc5MiwwIDEuNDQsLTAuMTQ0IDAuNjcyLC0wLjE0NCAxLjIyNCwtMC4zNiAwLjU1MiwtMC4yMTYgMC45ODQsLTAuNDggMC40MzIsLTAuMjY0IDAuNzQ0LC0wLjUwNCBsIDAuNjk2LDEuMDggcSAtMC44MTYsMC42OTYgLTIuMTYsMS4yMjQgLTEuMzIsMC41MjggLTMuMDI0LDAuNTI4IC0zLjY3MiwwIC01LjQyNCwtMi4yMzIgLTEuNzUyLC0yLjIzMiAtMS43NTIsLTYuMzg0IDAsLTEuOTY4IDAuNDMyLC0zLjU3NiAwLjQ1NiwtMS42MzIgMS4zNDQsLTIuNzg0IDAuOTEyLC0xLjE1MiAyLjI1NiwtMS43NzYgMS4zNjgsLTAuNjQ4IDMuMTkyLC0wLjY0OCAwLjk4NCwwIDEuOCwwLjE5MiAwLjgxNiwwLjE5MiAxLjQ0LDAuNDggMC42MjQsMC4yNjQgMS4wNTYsMC41NzYgMC40NTYsMC4yODggMC43MiwwLjUyOCBsIC0wLjc2OCwxLjA4IHEgLTAuNiwtMC41MDQgLTEuNjMyLC0xLjAwOCAtMS4wMzIsLTAuNTI4IC0yLjU2OCwtMC41MjggeiIvPiYjeGE7ICAgICAgICA8cGF0aCBpbmtzY2FwZTpjb25uZWN0b3ItY3VydmF0dXJlPSIwIiBpZD0icGF0aDg0NyIgc3R5bGU9ImZvbnQtdmFyaWFudC1saWdhdHVyZXM6bm9ybWFsO2ZvbnQtdmFyaWFudC1jYXBzOm5vcm1hbDtmb250LXZhcmlhbnQtbnVtZXJpYzpub3JtYWw7Zm9udC12YXJpYW50LWVhc3QtYXNpYW46bm9ybWFsO2ZpbGw6I2ZmZmZmZjtmaWxsLW9wYWNpdHk6MSIgZD0ibSAxMjkuMTksMjMyLjI3IHEgMCwtMS45NjggMC40NTYsLTMuNTc2IDAuNDgsLTEuNjMyIDEuMzkyLC0yLjc4NCAwLjkxMiwtMS4xNTIgMi4yNTYsLTEuNzc2IDEuMzQ0LC0wLjY0OCAzLjA3MiwtMC42NDggMS43MjgsMCAzLjA0OCwwLjY0OCAxLjM0NCwwLjYyNCAyLjIzMiwxLjc3NiAwLjkxMiwxLjE1MiAxLjM2OCwyLjc4NCAwLjQ4LDEuNjA4IDAuNDgsMy41NzYgMCwxLjk2OCAtMC40OCwzLjYgLTAuNDU2LDEuNjA4IC0xLjM2OCwyLjc4NCAtMC44ODgsMS4xNTIgLTIuMjMyLDEuOCAtMS4zNDQsMC42MjQgLTMuMDcyLDAuNjI0IC0xLjcyOCwwIC0zLjA3MiwtMC42MjQgLTEuMzQ0LC0wLjY0OCAtMi4yNTYsLTEuOCAtMC44ODgsLTEuMTc2IC0xLjM2OCwtMi43ODQgLTAuNDU2LC0xLjYzMiAtMC40NTYsLTMuNiB6IG0gMS41ODQsMCBxIDAsMS42OCAwLjMzNiwzLjA0OCAwLjMzNiwxLjM0NCAxLjAzMiwyLjMyOCAwLjY5NiwwLjk2IDEuNzI4LDEuNDg4IDEuMDU2LDAuNTI4IDIuNDcyLDAuNTI4IDEuNDE2LDAgMi40NDgsLTAuNTI4IDEuMDU2LC0wLjUyOCAxLjc1MiwtMS40ODggMC42OTYsLTAuOTg0IDEuMDMyLC0yLjMyOCAwLjMzNiwtMS4zNjggMC4zMzYsLTMuMDQ4IDAsLTEuNjggLTAuMzM2LC0zLjAyNCAtMC4zMzYsLTEuMzY4IC0xLjAzMiwtMi4zMjggLTAuNjk2LC0wLjk2IC0xLjc1MiwtMS40ODggLTEuMDMyLC0wLjUyOCAtMi40NDgsLTAuNTI4IC0xLjQxNiwwIC0yLjQ3MiwwLjUyOCAtMS4wMzIsMC41MjggLTEuNzI4LDEuNDg4IC0wLjY5NiwwLjk2IC0xLjAzMiwyLjMyOCAtMC4zMzYsMS4zNDQgLTAuMzM2LDMuMDI0IHoiLz4mI3hhOyAgICAgICAgPHBhdGggaW5rc2NhcGU6Y29ubmVjdG9yLWN1cnZhdHVyZT0iMCIgaWQ9InBhdGg4NDkiIHN0eWxlPSJmb250LXZhcmlhbnQtbGlnYXR1cmVzOm5vcm1hbDtmb250LXZhcmlhbnQtY2Fwczpub3JtYWw7Zm9udC12YXJpYW50LW51bWVyaWM6bm9ybWFsO2ZvbnQtdmFyaWFudC1lYXN0LWFzaWFuOm5vcm1hbDtmaWxsOiNmZmZmZmY7ZmlsbC1vcGFjaXR5OjEiIGQ9Im0gMTQ5LjYzLDIyNi4zNCB2IDE0LjM3NiBoIC0xLjQ2NCB2IC0xNi44NzIgaCAxLjU4NCBsIDguMzc2LDE0LjMwNCB2IC0xNC4zMDQgaCAxLjQ2NCB2IDE2Ljg3MiBoIC0xLjQ2NCB6Ii8+JiN4YTsgICAgICAgIDxwYXRoIGlua3NjYXBlOmNvbm5lY3Rvci1jdXJ2YXR1cmU9IjAiIGlkPSJwYXRoODUxIiBzdHlsZT0iZm9udC12YXJpYW50LWxpZ2F0dXJlczpub3JtYWw7Zm9udC12YXJpYW50LWNhcHM6bm9ybWFsO2ZvbnQtdmFyaWFudC1udW1lcmljOm5vcm1hbDtmb250LXZhcmlhbnQtZWFzdC1hc2lhbjpub3JtYWw7ZmlsbDojZmZmZmZmO2ZpbGwtb3BhY2l0eToxIiBkPSJtIDE2OC42MywyMjUuMjYgaCAtNS4xODQgdiAtMS40MTYgaCAxMS44NTYgdiAxLjQxNiBoIC01LjE2IHYgMTUuNDU2IGggLTEuNTEyIHoiLz4mI3hhOyAgICAgICAgPHBhdGggaW5rc2NhcGU6Y29ubmVjdG9yLWN1cnZhdHVyZT0iMCIgaWQ9InBhdGg4NTMiIHN0eWxlPSJmb250LXZhcmlhbnQtbGlnYXR1cmVzOm5vcm1hbDtmb250LXZhcmlhbnQtY2Fwczpub3JtYWw7Zm9udC12YXJpYW50LW51bWVyaWM6bm9ybWFsO2ZvbnQtdmFyaWFudC1lYXN0LWFzaWFuOm5vcm1hbDtmaWxsOiNmZmZmZmY7ZmlsbC1vcGFjaXR5OjEiIGQ9Im0gMTg1LDIzNi4wMSBoIC02LjkzNiBsIC0xLjUxMiw0LjcwNCBoIC0xLjQ0IGwgNS42NCwtMTYuODcyIGggMS42OCBsIDUuNjY0LDE2Ljg3MiBoIC0xLjU2IHogbSAtNi41MjgsLTEuMzIgaCA2LjA5NiBsIC0zLjAyNCwtOS4xMiB6Ii8+JiN4YTsgICAgICAgIDxwYXRoIGlua3NjYXBlOmNvbm5lY3Rvci1jdXJ2YXR1cmU9IjAiIGlkPSJwYXRoODU1IiBzdHlsZT0iZm9udC12YXJpYW50LWxpZ2F0dXJlczpub3JtYWw7Zm9udC12YXJpYW50LWNhcHM6bm9ybWFsO2ZvbnQtdmFyaWFudC1udW1lcmljOm5vcm1hbDtmb250LXZhcmlhbnQtZWFzdC1hc2lhbjpub3JtYWw7ZmlsbDojZmZmZmZmO2ZpbGwtb3BhY2l0eToxIiBkPSJtIDE5My4wNSwyNDAuNzIgaCAtMS41MTIgdiAtMTYuODcyIGggMS41MTIgeiIvPiYjeGE7ICAgICAgICA8cGF0aCBpbmtzY2FwZTpjb25uZWN0b3ItY3VydmF0dXJlPSIwIiBpZD0icGF0aDg1NyIgc3R5bGU9ImZvbnQtdmFyaWFudC1saWdhdHVyZXM6bm9ybWFsO2ZvbnQtdmFyaWFudC1jYXBzOm5vcm1hbDtmb250LXZhcmlhbnQtbnVtZXJpYzpub3JtYWw7Zm9udC12YXJpYW50LWVhc3QtYXNpYW46bm9ybWFsO2ZpbGw6I2ZmZmZmZjtmaWxsLW9wYWNpdHk6MSIgZD0ibSAxOTkuNzEsMjI2LjM0IHYgMTQuMzc2IGggLTEuNDY0IHYgLTE2Ljg3MiBoIDEuNTg0IGwgOC4zNzYsMTQuMzA0IHYgLTE0LjMwNCBoIDEuNDY0IHYgMTYuODcyIGggLTEuNDY0IHoiLz4mI3hhOyAgICAgICAgPHBhdGggaW5rc2NhcGU6Y29ubmVjdG9yLWN1cnZhdHVyZT0iMCIgaWQ9InBhdGg4NTkiIHN0eWxlPSJmb250LXZhcmlhbnQtbGlnYXR1cmVzOm5vcm1hbDtmb250LXZhcmlhbnQtY2Fwczpub3JtYWw7Zm9udC12YXJpYW50LW51bWVyaWM6bm9ybWFsO2ZvbnQtdmFyaWFudC1lYXN0LWFzaWFuOm5vcm1hbDtmaWxsOiNmZmZmZmY7ZmlsbC1vcGFjaXR5OjEiIGQ9Im0gMjE0Ljg5LDIyMy44NSBoIDkuMzEyIHYgMS4zOTIgaCAtNy44IHYgNiBoIDYuMDk2IHYgMS4zOTIgaCAtNi4wOTYgdiA2LjY5NiBoIDguMDQgdiAxLjM5MiBoIC05LjU1MiB6Ii8+JiN4YTsgICAgICAgIDxwYXRoIGlua3NjYXBlOmNvbm5lY3Rvci1jdXJ2YXR1cmU9IjAiIGlkPSJwYXRoODYxIiBzdHlsZT0iZm9udC12YXJpYW50LWxpZ2F0dXJlczpub3JtYWw7Zm9udC12YXJpYW50LWNhcHM6bm9ybWFsO2ZvbnQtdmFyaWFudC1udW1lcmljOm5vcm1hbDtmb250LXZhcmlhbnQtZWFzdC1hc2lhbjpub3JtYWw7ZmlsbDojZmZmZmZmO2ZpbGwtb3BhY2l0eToxIiBkPSJtIDIzOC45OCwyNDAuNzIgaCAtMS43NTIgbCAtNC4xMjgsLTYuOTM2IGggLTMuNDA4IHYgNi45MzYgaCAtMS40ODggdiAtMTYuODcyIGggNC40NCBxIDEuNTEyLDAgMi41MiwwLjQzMiAxLjAzMiwwLjQzMiAxLjY1NiwxLjE1MiAwLjYyNCwwLjY5NiAwLjg4OCwxLjU4NCAwLjI4OCwwLjg2NCAwLjI4OCwxLjc1MiAwLDAuOTM2IC0wLjI2NCwxLjcwNCAtMC4yNjQsMC43NjggLTAuNzIsMS4zNDQgLTAuNDU2LDAuNTc2IC0xLjA4LDAuOTg0IC0wLjYsMC40MDggLTEuMjcyLDAuNjQ4IHogbSAtMi40NzIsLTExLjg4IHEgMCwtMS42OCAtMC45NiwtMi42NjQgLTAuOTM2LC0wLjk4NCAtMy4wNzIsLTAuOTg0IGggLTIuNzg0IHYgNy4yNzIgaCAyLjg4IHEgMi4wNCwwIDIuOTc2LC0wLjk4NCAwLjk2LC0wLjk4NCAwLjk2LC0yLjY0IHoiLz4mI3hhOyAgICAgIDwvZz4mI3hhOyAgICAgIDxnIGlkPSJnODcxIiBmaWxsPSIjMDBjOWZmIj4mI3hhOyAgICAgICAgPHBhdGggaW5rc2NhcGU6Y29ubmVjdG9yLWN1cnZhdHVyZT0iMCIgaWQ9InBhdGg4NjUiIHN0eWxlPSJmb250LXZhcmlhbnQtbGlnYXR1cmVzOm5vcm1hbDtmb250LXZhcmlhbnQtY2Fwczpub3JtYWw7Zm9udC12YXJpYW50LW51bWVyaWM6bm9ybWFsO2ZvbnQtdmFyaWFudC1lYXN0LWFzaWFuOm5vcm1hbCIgZD0ibSAyNDIuNDIsMjIyLjcyIGggMi4xMzYgdiAxOCBoIC0yLjEzNiB6Ii8+JiN4YTsgICAgICAgIDxwYXRoIGlua3NjYXBlOmNvbm5lY3Rvci1jdXJ2YXR1cmU9IjAiIGlkPSJwYXRoODY3IiBzdHlsZT0iZm9udC12YXJpYW50LWxpZ2F0dXJlczpub3JtYWw7Zm9udC12YXJpYW50LWNhcHM6bm9ybWFsO2ZvbnQtdmFyaWFudC1udW1lcmljOm5vcm1hbDtmb250LXZhcmlhbnQtZWFzdC1hc2lhbjpub3JtYWwiIGQ9Im0gMjU1Ljk3LDIzNS4xMyBxIC0wLjAyNCwwIC0wLjMxMiwtMC4wNDggLTAuMjg4LC0wLjA0OCAtMC43MiwtMC4wNzIgLTAuNDMyLC0wLjA0OCAtMC45MzYsLTAuMDcyIC0wLjUwNCwtMC4wNDggLTAuOTM2LC0wLjA0OCAtMC43NjgsMCAtMS4zMiwwLjE5MiAtMC41MjgsMC4xOTIgLTAuODY0LDAuNTI4IC0wLjMzNiwwLjMxMiAtMC41MDQsMC43NDQgLTAuMTQ0LDAuNDMyIC0wLjE0NCwwLjkzNiAwLDEuMDMyIDAuNjcyLDEuNTM2IDAuNjk2LDAuNTA0IDEuOCwwLjUwNCAwLjYsMCAxLjE3NiwtMC4xOTIgMC41NzYsLTAuMTkyIDEuMDMyLC0wLjUyOCAwLjQ4LC0wLjM2IDAuNzY4LC0wLjgxNiAwLjI4OCwtMC40OCAwLjI4OCwtMS4wNTYgeiBtIDAuMTQ0LDUuNTkyIC0wLjA5NiwtMS4zNDQgcSAtMC41NTIsMC43NjggLTEuNjA4LDEuMjI0IC0xLjA1NiwwLjQzMiAtMi4xODQsMC40MzIgLTAuNzIsMCAtMS40NCwtMC4xOTIgLTAuNzIsLTAuMTkyIC0xLjI5NiwtMC42MjQgLTAuNTc2LC0wLjQzMiAtMC45NiwtMS4xNTIgLTAuMzYsLTAuNzIgLTAuMzYsLTEuNzc2IDAsLTEuODQ4IDEuMiwtMi45NTIgMS4yLC0xLjEwNCAzLjYsLTEuMTA0IDAuMzg0LDAgMC44NjQsMC4wMjQgMC40OCwwLjAyNCAwLjkxMiwwLjA3MiAwLjQzMiwwLjAyNCAwLjc2OCwwLjA3MiAwLjMzNiwwLjAyNCAwLjQ1NiwwLjA0OCB2IC0wLjc0NCBxIDAsLTEuMzIgLTAuNzkyLC0xLjg5NiAtMC43NjgsLTAuNTc2IC0yLjIwOCwtMC41NzYgLTEuMjk2LDAgLTIuMjA4LDAuMjg4IC0wLjg4OCwwLjI4OCAtMS4yOTYsMC41MjggbCAtMC42NDgsLTEuNTEyIHEgMC4yMTYsLTAuMTQ0IDAuNiwtMC4zMzYgMC4zODQsLTAuMTkyIDAuOTM2LC0wLjM2IDAuNTc2LC0wLjE5MiAxLjI5NiwtMC4zMTIgMC43NDQsLTAuMTIgMS42NTYsLTAuMTIgMi4xODQsMCAzLjQ1NiwxLjA4IDEuMjcyLDEuMDU2IDEuMjcyLDMuMDk2IHYgOC4xMzYgeiIvPiYjeGE7ICAgICAgICA8cGF0aCBpbmtzY2FwZTpjb25uZWN0b3ItY3VydmF0dXJlPSIwIiBpZD0icGF0aDg2OSIgc3R5bGU9ImZvbnQtdmFyaWFudC1saWdhdHVyZXM6bm9ybWFsO2ZvbnQtdmFyaWFudC1jYXBzOm5vcm1hbDtmb250LXZhcmlhbnQtbnVtZXJpYzpub3JtYWw7Zm9udC12YXJpYW50LWVhc3QtYXNpYW46bm9ybWFsIiBkPSJtIDI2Mi4xOSwyMjIuNzIgaCAyLjEzNiB2IDcuNDg4IHEgMC4wOTYsLTAuMjE2IDAuMzYsLTAuNTA0IDAuMjg4LC0wLjMxMiAwLjc0NCwtMC42IDAuNDU2LC0wLjI4OCAxLjA4LC0wLjQ4IDAuNjI0LC0wLjIxNiAxLjQ0LC0wLjIxNiAxLjMyLDAgMi4zMDQsMC40OCAwLjk4NCwwLjQ4IDEuNjMyLDEuMzIgMC42NDgsMC44NCAwLjk2LDEuOTY4IDAuMzEyLDEuMTA0IDAuMzEyLDIuNCAwLDEuNzc2IC0wLjQ4LDMgLTAuNDgsMS4yIC0xLjI0OCwxLjk0NCAtMC43NjgsMC43NDQgLTEuNzUyLDEuMDggLTAuOTYsMC4zMTIgLTEuOTQ0LDAuMzEyIC0wLjcyLDAgLTEuMjk2LC0wLjE0NCAtMC41NTIsLTAuMTIgLTAuOTg0LC0wLjMxMiAtMC40MzIsLTAuMTkyIC0wLjc0NCwtMC40MDggLTAuMjg4LC0wLjIxNiAtMC40NTYsLTAuNDA4IGwgLTAuMDk2LDEuMDggaCAtMS45NjggeiBtIDUuMjU2LDE2LjM0NCBxIDEuNjA4LDAgMi41NDQsLTEuMDU2IDAuOTYsLTEuMDggMC45NiwtMy40MzIgMCwtMC45MTIgLTAuMTkyLC0xLjY4IC0wLjE5MiwtMC43OTIgLTAuNiwtMS4zNDQgLTAuNDA4LC0wLjU3NiAtMS4wMzIsLTAuODg4IC0wLjYsLTAuMzEyIC0xLjQ0LC0wLjMxMiAtMS42NTYsMCAtMi41MiwxLjE1MiAtMC44NjQsMS4xNTIgLTAuODY0LDMuNTUyIHYgMi42MTYgcSAwLjMzNiwwLjQ1NiAxLjEyOCwwLjkzNiAwLjgxNiwwLjQ1NiAyLjAxNiwwLjQ1NiB6Ii8+JiN4YTsgICAgICA8L2c+JiN4YTsgICAgPC9nPiYjeGE7ICA8L2c+JiN4YTsgIDxnIGlkPSJnODc5IiB0cmFuc2Zvcm09InRyYW5zbGF0ZSgtMTA0LjI2LC05Ny42NTQpIj4mI3hhOyAgICA8cGF0aCBzdHlsZT0iZmlsbDojZmZmZmZmO2ZpbGwtb3BhY2l0eToxIiBpbmtzY2FwZTpjb25uZWN0b3ItY3VydmF0dXJlPSIwIiBpZD0icGF0aDg3NyIgZmlsbC1ydWxlPSJldmVub2RkIiBmaWxsPSIjMDAxMTM1IiBkPSJtIDE4My44OCwxMDguMDMgYyAtMC45MDUsMC4zMDYgLTMuNDk3LDEuNjUxIC01Ljc2MSwyLjk5IC0zLjg1MywyLjI3OCAtMTEuMDEzLDYuMzg1IC0xNS4xMTcsOC42NzIgLTguOTEsNC45NjUgLTEyLjIyMiw3LjI0IC0xMy42LDkuMzQgbCAtMS40LDIuMTM1IHYgNDggbCAxLjQ5NSwyLjIzNCBjIDAuOTgxLDEuNDY2IDIuMTQ5LDIuNjA0IDMuNCwzLjMxMSAxLjA0OCwwLjU5MyAyLjE3NSwxLjI0OSAyLjUwNSwxLjQ1NyAxLjQyNywwLjkwMSA2Ljg4MiwzLjk5OCA3LjA0MSwzLjk5OCAwLjA5NiwwIDAuOTM2LDAuNDkgMS44NjcsMS4wOSAwLjkzMSwwLjU5OSAyLjA2OCwxLjI5MyAyLjUyNywxLjU0MyA1LjExOCwyLjc3NSA2LjQ1NiwzLjU0MyA2Ljk5Niw0LjAxNSAwLjM0OCwwLjMwNCAwLjc0LDAuNTUyIDAuODczLDAuNTUyIDAuMjEyLDAgOS41MTEsNS4zNTkgMTEuMDk2LDYuMzkzIDUuMDY0LDMuMzA4IDkuMjg0LDMuNTU2IDE0LjIsMC44MzcgMS43NiwtMC45NzQgMy41NiwtMS45NjkgNCwtMi4yMTEgMC40NCwtMC4yNDIgMS41NzEsLTAuOTM2IDIuNTEzLC0xLjU0MiAwLjk0MiwtMC42MDcgMi40NzIsLTEuNDk1IDMuNCwtMS45NzQgMC45MjgsLTAuNDc5IDMuMjU3LC0xLjgyMyA1LjE3NSwtMi45ODcgMS45MTgsLTEuMTY0IDMuNTcxLC0yLjExNiAzLjY3MiwtMi4xMTYgMC4xMDIsMCAyLjg1MiwtMS41NzYgNi4xMTIsLTMuNTAzIDMuMjYxLC0xLjkyNyA2LjU3MiwtMy44NDEgNy4zNTksLTQuMjU0IDMuMDI3LC0xLjU4OCA0LjYxNiwtMi45NTIgNS44NjksLTUuMDQxIGwgMS4zLC0yLjE2NyAtMC4wMDQsLTIzLjYxNyAtMC4wMDQsLTIzLjYxOCAtMS4xODQsLTIuMDY2IGMgLTAuNjUyLC0xLjEzNiAtMS44NjUsLTIuNTQxIC0yLjY5NywtMy4xMjEgLTEuNzk1LC0xLjI1NCAtMTEuNTY3LC02Ljk1MSAtMTcuMTExLC05Ljk3NiAtMC40NCwtMC4yNDEgLTEuMDcsLTAuNjQyIC0xLjQsLTAuODkyIC0wLjMzLC0wLjI1MSAtMS41LC0wLjkzNSAtMi42LC0xLjUyMiAtMS4xLC0wLjU4NiAtMi4zNTMsLTEuMjgxIC0yLjc4NSwtMS41NDQgLTguNzg2LC01LjM1NyAtMTEuMDE0LC01Ljg4OSAtMTIuOTk4LC0zLjEwMyAtMC43OTIsMS4xMTIgLTAuODE3LDEuNjY5IC0wLjgxNywxOC4yMDYgdiAxNy4wNTkgbCAxLjUsMC41OTcgYyA0LjUzNSwxLjgwNyA1LjI3NiwyLjIwOSA3Ljg4NSw0LjI3OCAyLjMwNSwxLjgyOSA2LjgxMzgsOC4zNTc3IDYuODEzOCw5LjU2MTcgMCwwLjI5NCAtMC4zNDY4LC0wLjQ1MDczIC0wLjAzNzgsMC4wMzYzIDIuMDg3LDMuMjk3IDEuNTY5LDExLjM3MyAtMS4wNTMsMTYuNDE1IC0xMS43NiwyMi42MTMgLTQ1LjQ5MywxMC41IC00MC4xNDYsLTE0LjQxNyAxLjQzMywtNi42NzggMTAuMTMyLC0xNS41NjkgMTUuMTI2LC0xNS43MTIgMS45NTksLTAuMDU2MSAxLjkxMiwtMC43ODQgMS45MTIsLTE3LjkwOSAwLC0xNy4wMTcgLTAuMDMzLC0xNy4zNTIgLTEuODU5LC0xOC45MzYgLTEuMTE5LC0wLjk3IC0yLjI0NiwtMS4xMDYgLTQuMDYzLC0wLjQ5MiBtIDEuNTc3LDE1LjM3NCBjIDAuMDEyLDUuODEgMC4wMDQsMTIuMjkxIC0wLjAxNywxNC40MDIgbCAtMC4wMzgsMy44MzkgLTIuOTc4LDEuNDcyIGMgLTI0LjEzMywxMS45MjcgLTE1LjY5Nyw0OC4zNzQgMTEuMTc4LDQ4LjI5IDI3LjM3NywtMC4wODUgMzUuNDcsLTM2LjEgMTAuOTEzLC00OC41NjUgbCAtMi41MTMsLTEuMjc1IHYgLTI5LjIgbCAwLjk3OSwwLjEwOSBjIDAuNTM4LDAuMDYgMS4yNTgsMC4zNSAxLjYsMC42NDQgMC4zNDEsMC4yOTMgMS44NTUsMS4yMDMgMy4zNjQsMi4wMjEgMS41MDgsMC44MTggMy44OTYsMi4xOTMgNS4zMDcsMy4wNTYgMS40MSwwLjg2NCAyLjYzNSwxLjU3IDIuNzIzLDEuNTcgMC4yNTYsMCAxMy4wMTIsNy40MjcgMTUuNTk5LDkuMDgyIDQuMjM3LDIuNzEyIDQuMDEzLDEuMjkxIDQuMTIyLDI2LjExOCBsIDAuMDk1LDIxLjQgLTAuOTI1LDEuOCBjIC0wLjkxMywxLjc3NSAtMi41MjMsMy4xMzcgLTUuNjY0LDQuNzg5IC0xLjY2MSwwLjg3MyAtMi41MDIsMS4zNjUgLTQuMTk4LDIuNDU0IC0wLjU1MSwwLjM1NCAtMi4wODIsMS4yMzkgLTMuNDAyLDEuOTY2IC0zLjcyNywyLjA1MyAtNC40MDEsMi40NCAtMTAuOCw2LjE5NSAtMy4zLDEuOTM3IC02LjcyLDMuOTA5IC03LjYsNC4zODIgLTAuODgsMC40NzMgLTMuMDU4LDEuNzA1IC00LjgzOSwyLjczNyAtNC45MjQsMi44NTMgLTUuMDEzLDIuODMxIC0xNi4zNiwtNC4wMDYgLTAuNDQsLTAuMjY1IC0xLjIzNCwtMC42NzcgLTEuNzY0LC0wLjkxNCAtMC41MjksLTAuMjM3IC0xLjc1MywtMC45NjUgLTIuNzIsLTEuNjE3IC0wLjk2NiwtMC42NTIgLTEuODkzLC0xLjE4NiAtMi4wNTksLTEuMTg2IC0wLjE2NiwwIC0xLjE5MiwtMC41NjkgLTIuMjgsLTEuMjY1IC0yLjEwOCwtMS4zNDkgLTkuMzg1LC01LjUzNSAtOS42MjIsLTUuNTM1IC0wLjA3NywwIC0xLjA5MywtMC41ODUgLTIuMjU4LC0xLjMgLTEuMTY1LC0wLjcxNSAtMi40NzMsLTEuNTE4IC0yLjkwOCwtMS43ODUgLTAuNDM0LC0wLjI2NyAtMS41NiwtMC44ODYgLTIuNTAxLC0xLjM3NiAtMC45NDEsLTAuNDkgLTIuMjAxLC0xLjUzMiAtMi44LC0yLjMxNSBsIC0xLjA4OSwtMS40MjQgdiAtNDUuNjIgbCAwLjkxLC0xLjE1NiBjIDAuODQ0LC0xLjA3MyA1LjExOSwtNC4xODcgNS43ODMsLTQuMjEzIDAuMTYxLC0wLjAwNiAxLjQ2OSwtMC43MzEgMi45MDcsLTEuNjExIDEuNDM4LC0wLjg4IDIuNzA4LC0xLjYgMi44MjMsLTEuNiAwLjExNSwwIDAuNjk3LC0wLjMzNSAxLjI5MywtMC43NDQgMS4xMywtMC43NzUgMTAuODEzLC02LjM4MyAxNC4yODQsLTguMjcxIDEuMSwtMC41OTkgMi4yNywtMS4zMTcgMi42LC0xLjU5NiAwLjc0NCwtMC42MjggMi4wOTQsLTAuOTQxIDIuNTE3LC0wLjU4MyAwLjE3NCwwLjE0NyAwLjMyNiw1LjAyMSAwLjMzOCwxMC44MzEiLz4mI3hhOyAgPC9nPiYjeGE7PC9zdmc+;" vertex="1" parent="Hvadh7sFhpXeqMrMuhxV-1">
          <mxGeometry x="387.96000000000004" y="272" width="23.91" height="20" as="geometry" />
        </mxCell>
        <mxCell id="kvwh2v-Nk0NHKlyejy3k-17" value="" style="rounded=1;whiteSpace=wrap;html=1;" vertex="1" parent="Hvadh7sFhpXeqMrMuhxV-1">
          <mxGeometry x="397" y="347" width="39" height="37" as="geometry" />
        </mxCell>
        <mxCell id="kvwh2v-Nk0NHKlyejy3k-18" value="" style="group;aspect=fixed;" vertex="1" connectable="0" parent="Hvadh7sFhpXeqMrMuhxV-1">
          <mxGeometry x="402" y="351" width="29" height="29" as="geometry" />
        </mxCell>
        <mxCell id="kvwh2v-Nk0NHKlyejy3k-19" value="" style="group" vertex="1" connectable="0" parent="kvwh2v-Nk0NHKlyejy3k-18">
          <mxGeometry width="29" height="29" as="geometry" />
        </mxCell>
        <mxCell id="kvwh2v-Nk0NHKlyejy3k-20" value="" style="whiteSpace=wrap;html=1;aspect=fixed;fillColor=#001135;strokeColor=none;connectable=1;allowArrows=1;fontFamily=Manrope;fontSource=https%3A%2F%2Ffonts.googleapis.com%2Fcss%3Ffamily%3DManrope;" vertex="1" parent="kvwh2v-Nk0NHKlyejy3k-19">
          <mxGeometry width="29" height="29" as="geometry" />
        </mxCell>
        <mxCell id="kvwh2v-Nk0NHKlyejy3k-21" value="" style="endArrow=open;html=1;edgeStyle=orthogonalEdgeStyle;rounded=0;endFill=0;startSize=6;endSize=2;strokeColor=#FFFFFF;fontFamily=Manrope;fontSource=https%3A%2F%2Ffonts.googleapis.com%2Fcss%3Ffamily%3DManrope;" edge="1" parent="kvwh2v-Nk0NHKlyejy3k-19">
          <mxGeometry width="48.33333333333334" height="48.33333333333334" as="geometry">
            <mxPoint x="2.9" y="11.6" as="sourcePoint" />
            <mxPoint x="10.633333333333335" y="2.9" as="targetPoint" />
            <Array as="points">
              <mxPoint x="10.633333333333335" y="11.6" />
            </Array>
          </mxGeometry>
        </mxCell>
        <mxCell id="kvwh2v-Nk0NHKlyejy3k-22" value="" style="endArrow=open;html=1;edgeStyle=orthogonalEdgeStyle;rounded=0;endFill=0;startSize=6;endSize=2;strokeColor=#FFFFFF;fontFamily=Manrope;fontSource=https%3A%2F%2Ffonts.googleapis.com%2Fcss%3Ffamily%3DManrope;" edge="1" parent="kvwh2v-Nk0NHKlyejy3k-19">
          <mxGeometry width="48.33333333333334" height="48.33333333333334" as="geometry">
            <mxPoint x="10.633333333333335" y="26.1" as="sourcePoint" />
            <mxPoint x="2.9" y="18.366666666666667" as="targetPoint" />
            <Array as="points">
              <mxPoint x="10.633333333333335" y="18.366666666666667" />
            </Array>
          </mxGeometry>
        </mxCell>
        <mxCell id="kvwh2v-Nk0NHKlyejy3k-23" value="" style="endArrow=open;html=1;edgeStyle=orthogonalEdgeStyle;rounded=0;endFill=0;startSize=6;endSize=2;strokeColor=#FFFFFF;fontFamily=Manrope;fontSource=https%3A%2F%2Ffonts.googleapis.com%2Fcss%3Ffamily%3DManrope;" edge="1" parent="kvwh2v-Nk0NHKlyejy3k-19">
          <mxGeometry width="48.33333333333334" height="48.33333333333334" as="geometry">
            <mxPoint x="17.4" y="2.9" as="sourcePoint" />
            <mxPoint x="26.1" y="11.6" as="targetPoint" />
            <Array as="points">
              <mxPoint x="17.4" y="11.6" />
            </Array>
          </mxGeometry>
        </mxCell>
        <mxCell id="kvwh2v-Nk0NHKlyejy3k-24" value="" style="endArrow=open;html=1;edgeStyle=orthogonalEdgeStyle;rounded=0;endFill=0;startSize=6;endSize=2;strokeColor=#FFFFFF;fontFamily=Manrope;fontSource=https%3A%2F%2Ffonts.googleapis.com%2Fcss%3Ffamily%3DManrope;" edge="1" parent="kvwh2v-Nk0NHKlyejy3k-19">
          <mxGeometry width="48.33333333333334" height="48.33333333333334" as="geometry">
            <mxPoint x="26.1" y="18.366666666666667" as="sourcePoint" />
            <mxPoint x="17.4" y="26.1" as="targetPoint" />
            <Array as="points">
              <mxPoint x="17.4" y="18.366666666666667" />
            </Array>
          </mxGeometry>
        </mxCell>
        <mxCell id="kvwh2v-Nk0NHKlyejy3k-16" value="" style="shape=image;verticalLabelPosition=bottom;labelBackgroundColor=#ffffff;verticalAlign=top;aspect=fixed;imageAspect=0;image=data:image/svg+xml,PHN2ZyB4bWxucz0iaHR0cDovL3d3dy53My5vcmcvMjAwMC9zdmciIHhtbG5zOnhsaW5rPSJodHRwOi8vd3d3LnczLm9yZy8xOTk5L3hsaW5rIiB2aWV3Qm94PSIwLjUgMC41IDQ3LjA5NzAwMDEyMjA3MDMxIDI2Ljc0Mzk5OTQ4MTIwMTE3MiIgZmlsbD0iI2ZmZiIgZmlsbC1ydWxlPSJldmVub2RkIiBzdHJva2U9IiMwMDAiIHN0cm9rZS1saW5lY2FwPSJyb3VuZCIgc3Ryb2tlLWxpbmVqb2luPSJyb3VuZCIgd2lkdGg9IjQ3LjA5NzAwMDEyMjA3MDMxIiBoZWlnaHQ9IjI2Ljc0Mzk5OTQ4MTIwMTE3MiI+PHN0eWxlPi5Ce2ZpbGwtcnVsZTpub256ZXJvfS5De2ZpbGw6IzAwMH0uRHtzdHJva2U6bm9uZX0uRXtzdHJva2U6IzM5NGQ1NH0uRntzdHJva2UtbGluZWpvaW46bWl0ZXJ9Lkd7c3Ryb2tlLWxpbmVjYXA6YnV0dH0uSHtzdHJva2Utd2lkdGg6LjI4OH0uSXtmaWxsOiMwMGFjZDN9Lkp7ZmlsbDojMjBjMmVmfTwvc3R5bGU+PHVzZSB4bGluazpocmVmPSIjQSIgeD0iLjUiIHk9Ii41Ii8+PHN5bWJvbCBpZD0iQSIgb3ZlcmZsb3c9InZpc2libGUiPjxnIGNsYXNzPSJEIj48cGF0aCBkPSJNMjcuMjM1IDguNDQ1aDQuMjIydjQuMzE2aDIuMTM1Yy45ODYgMCAyLS4xNzUgMi45MzQtLjQ5Mi40NTktLjE1NS45NzQtLjM3MiAxLjQyNi0uNjQ2LS41OTYtLjc3OC0uOS0xLjc2MS0uOTktMi43MjktLjEyMi0xLjMxNy4xNDQtMy4wMzIgMS4wMzQtNC4wNjNsLjQ0NC0uNTEzLjUyOS40MjVjMS4zMyAxLjA3IDIuNDUyIDIuNTY3IDIuNjQ5IDQuMjY5IDEuNjAzLS40NzIgMy40ODYtLjM2IDQuODk5LjQ1NmwuNTguMzM1LS4zMDUuNTk2Yy0xLjE5NCAyLjMzNS0zLjY5MyAzLjA1Ny02LjEzNiAyLjkyOS0zLjY1NiA5LjEwNC0xMS42MTQgMTMuNDE2LTIxLjI2NSAxMy40MTYtNC45ODYgMC05LjU2LTEuODY0LTEyLjE2NS02LjI4Ny0uMTUzLS4yNzUtLjI4My0uNTYyLS40MjItLjg0NC0uODgtMS45NDctMS4xNzMtNC4wOC0uOTc1LTYuMjExbC4wNTktLjYzOGgzLjYxMVY4LjQ0NWg0LjIyMlY0LjIyMmg4LjQ0NVYwaDUuMDY3djguNDQ1IiBmaWxsPSIjMzk0ZDU0IiBjbGFzcz0iQiIvPjxwYXRoIGZpbGw9IiMxN2I1ZWIiIGQ9Ik00Ni4xNjcgMTAuMDY5Yy0xLjA5MiAyLjEzMy0zLjQ4MyAyLjc3Mi01Ljk3NSAyLjUxNy0zLjUxMyA5LjMwOC0xMS40NSAxMy40NTEtMjAuODAzIDEzLjQ1MS00LjIyMyAwLTcuODgxLTEuMzMtMTAuMzM1LTQuMDg1LS4xNDUtLjIwNC0uMjI4LS4zNzQtLjQ1Ni0uNjgxLS4yMTgtLjI5My0uNDI5LS41OTItLjYwOC0uOTFsLS4zMzktLjYwOGMtLjkyOC0xLjgyNS0xLjMzMi0zLjk1OS0xLjExOC02LjI4OGgyNy4wNThjMi4yMjMgMCA0LjM5NC0uODI5IDUuNDI1LTEuNzQ1LTEuODQ2LTEuNTAxLTEuNjYzLTUuMDY3LS40ODctNi40MjcgMS4wMjEuODIgMi42NjggMi41NDkgMi4zODMgNC43NSAxLjI4Ni0uNjQ4IDMuNTE2LS45NjkgNS4yNTQuMDI2eiIvPjxwYXRoIGQ9Ik0yMi44NzIuNzA0aDMuNjZ2My42NmgtMy42NnoiIGNsYXNzPSJCIEoiLz48L2c+PHVzZSB4bGluazpocmVmPSIjQyIgY2xhc3M9IkIgQyBFIEYgRyBIIi8+PHBhdGggZD0iTTEwLjIwNSAxMi44MWgzLjY2VjkuMTUxaC0zLjY2eiIgY2xhc3M9IkIgRCBJIi8+PHVzZSB4bGluazpocmVmPSIjRCIgY2xhc3M9IkIgQyBFIEYgRyBIIi8+PGcgY2xhc3M9IkQiPjxwYXRoIGQ9Ik0xNC40MjcgNC45MjRoMy42NnYzLjY1OWgtMy42NnoiIGNsYXNzPSJCIEkiLz48cGF0aCBkPSJNMTQuNDI3IDkuMTQ4aDMuNjZ2My42NmgtMy42NnoiIGNsYXNzPSJCIEoiLz48L2c+PGcgY2xhc3M9IkMgRSBGIEcgSCI+PHVzZSB4bGluazpocmVmPSIjQyIgeD0iLTguNDQ1IiB5PSI0LjIyMyIgY2xhc3M9IkIiLz48dXNlIHhsaW5rOmhyZWY9IiNDIiB4PSItOC40NDUiIHk9IjguNDQ1IiBjbGFzcz0iQiIvPjwvZz48ZyBjbGFzcz0iRCI+PHBhdGggZD0iTTE4LjY0OSAxMi44MWgzLjY2VjkuMTUxaC0zLjY2eiIgY2xhc3M9IkIgSSIvPjxwYXRoIGQ9Ik0xOC42NDkgOC41ODZoMy42NnYtMy42NmgtMy42NnoiIGNsYXNzPSJCIEoiLz48L2c+PGcgY2xhc3M9IkMgRSBGIEcgSCI+PHVzZSB4bGluazpocmVmPSIjRCIgeD0iOC40NDUiIGNsYXNzPSJCIi8+PHVzZSB4bGluazpocmVmPSIjRCIgeD0iOC40NDUiIHk9Ii00LjIyMiIgY2xhc3M9IkIiLz48L2c+PGcgY2xhc3M9IkQiPjxwYXRoIGQ9Ik0yMi44NzIgNC45MjRoMy42NnYzLjY1OWgtMy42NnoiIGNsYXNzPSJCIEkiLz48cGF0aCBkPSJNMjIuODcyIDkuMTQ4aDMuNjZ2My42NmgtMy42NnoiIGNsYXNzPSJCIEoiLz48L2c+PGcgY2xhc3M9IkMgRSBGIEcgSCI+PHVzZSB4bGluazpocmVmPSIjQyIgeT0iNC4yMjMiIGNsYXNzPSJCIi8+PHVzZSB4bGluazpocmVmPSIjQyIgeT0iOC40NDUiIGNsYXNzPSJCIi8+PC9nPjxwYXRoIGQ9Ik0yNy4wOTQgMTIuODFoMy42NlY5LjE1MWgtMy42NnoiIGNsYXNzPSJCIEQgSSIvPjx1c2UgeGxpbms6aHJlZj0iI0QiIHg9IjE2Ljg4OSIgY2xhc3M9IkIgQyBFIEYgRyBIIi8+PGcgY2xhc3M9IkQiPjxwYXRoIGQ9Ik0xOC44NjYgMTkuNzUxYTEuMDEgMS4wMSAwIDAgMS0xLjAxIDEuMDEgMS4wMSAxLjAxIDAgMCAxLTEuMDEtMS4wMSAxLjAxIDEuMDEgMCAwIDEgMS4wMS0xLjAxIDEuMDEgMS4wMSAwIDAgMSAxLjAxIDEuMDF6IiBmaWxsPSIjZDRlZGYxIiBjbGFzcz0iQiIvPjxwYXRoIGQ9Ik0xOC4xMTkgMTkuMDc3Yy0uMTE1LjA2Ny0uMTcxLjIwMy0uMTM2LjMzMXMuMTUxLjIxOC4yODQuMjE5Yy4xMTIgMCAuMjA5LS4wNjIuMjU5LS4xNTRhLjcyLjcyIDAgMCAxIC4wNTUuMjc3YzAgLjM5OS0uMzI0LjcyMy0uNzIzLjcyM3MtLjcyMy0uMzI0LS43MjMtLjcyMy4zMjQtLjcyMy43MjMtLjcyM2EuNzIuNzIgMCAwIDEgLjI2Mi4wNDl6TTAgMTYuNjQ5aDQ2Ljk2NGMtMS4wMjMtLjI1OS0zLjIzNS0uNjEtMi44NzEtMS45NS0xLjg2IDIuMTUyLTYuMzQ0IDEuNTA5LTcuNDc1LjQ0OS0xLjI2IDEuODI4LTguNTk3IDEuMTMzLTkuMTA4LS4yOTEtMS41OCAxLjg1NC02LjQ3NSAxLjg1NC04LjA1NSAwLS41MTIgMS40MjItNy44NDggMi4xMTktOS4xMDkuMjkxLTEuMTMyIDEuMDYxLTUuNjE0IDEuNzAzLTcuNDc1LS40NDkuMzY1IDEuMzQtMS44NDggMS42OTEtMi44NzEgMS45NSIgZmlsbD0iIzM5NGQ1NCIgY2xhc3M9IkIiLz48cGF0aCBkPSJNNy45OSAyMC4zNjFsLS4zMzktLjYwOGMtLjUxOC0xLjAxNy0uODcyLTIuMTMxLTEuMDQ4LTMuMzE4aDMxLjcxNWMtNC4wNTcgNi42MS0xMC45ODMgOS42MDItMTguOTMgOS42MDItNC4yMjMgMC03Ljg4MS0xLjMzLTEwLjMzNS00LjA4NS0uMTQ1LS4yMDQtLjIyOC0uMzc0LS40NTYtLjY4MS0uMjE4LS4yOTMtLjQyOS0uNTkyLS42MDgtLjkxeiIgZmlsbC1vcGFjaXR5PSIuMTciIGNsYXNzPSJDIi8+PHBhdGggZmlsbD0iI2Q0ZWRmMSIgZD0iTTIwLjU0MSAyNi4wMThjLTIuNS0xLjE4Ny0zLjg3My0yLjgtNC42MzYtNC41NmwtNi45NzYuMzA0LjEyNS4xODljMi40NTQgMi43NTYgNi4xMTIgNC4wODUgMTAuMzM1IDQuMDg1YTMwLjkyIDMwLjkyIDAgMCAwIDEuMTQ2LS4wMjFsLjA0My0uMDAyIi8+PHBhdGggZD0iTTQxLjA4NyA5Ljk1OWMxLjMwNS0uNTg5IDMuNDE4LS44NDEgNS4wNzguMTE3LTEuMDg5IDIuMTI3LTMuNDggMi43NjYtNS45NzMgMi41MS0zLjUxMyA5LjMwOC0xMS40NSAxMy40NTEtMjAuODAzIDEzLjQ1MS00LjIyMyAwLTcuODgxLTEuMzMtMTAuMzM1LTQuMDg1LS4xNDUtLjIwNC0uMjI4LS4zNzQtLjQ1Ni0uNjgxLS4yMTgtLjI5My0uNDI5LS41OTItLjYwOC0uOTFsLS4zMzktLjYwOGMtLjkyOC0xLjgyNS0xLjMzMi0zLjk1OS0xLjExOC02LjI5aDEuNjAzYy0uMTEgMy41NTQgMS4yMDQgNi4yNTIgMy41MzcgNy44ODNsMS4wMTYuNjEyYzMuMTgzIDEuNjMyIDcuNzk2IDEuNjIzIDEzLjA4OC0uNDEgNS45MzItMi4yNzkgMTEuNDU3LTYuNjE0IDE1LjMxNi0xMS41OTJsLS4wMDcuMDEiIGZpbGwtb3BhY2l0eT0iLjE0IiBjbGFzcz0iQyIvPjwvZz48cGF0aCBkPSJNOC40MjUgMjEuNjExYzIuNjE2LjE0MyA1LjQwNy4xNjkgNy44NDItLjU5NSIgZmlsbD0ibm9uZSIgc3Ryb2tlLXdpZHRoPSIuNjI4IiBjbGFzcz0iRSBGIi8+PC9zeW1ib2w+PGRlZnM+PHBhdGggaWQ9IkMiIGQ9Ik0yMy4zMjEgNC4wNTh2LTMuMDVtLjU0OSAzLjA1di0zLjA1bS41NTQgMy4wNXYtMy4wNW0uNTU1IDMuMDV2LTMuMDVtLjU1NSAzLjA1di0zLjA1bS41NDggMy4wNXYtMy4wNSIvPjxwYXRoIGlkPSJEIiBkPSJNMTAuNjU0IDkuNDUzdjMuMDVtLjU0OS0zLjA1djMuMDVtLjU1NC0zLjA1djMuMDVtLjU1NS0zLjA1djMuMDVtLjU1NS0zLjA1djMuMDVtLjU0OC0zLjA1djMuMDUiLz48L2RlZnM+PC9zdmc+;" vertex="1" parent="Hvadh7sFhpXeqMrMuhxV-1">
          <mxGeometry x="387" y="340" width="27" height="15.51" as="geometry" />
        </mxCell>
        <mxCell id="kvwh2v-Nk0NHKlyejy3k-25" value="" style="rounded=1;whiteSpace=wrap;html=1;" vertex="1" parent="Hvadh7sFhpXeqMrMuhxV-1">
          <mxGeometry x="442" y="296" width="39" height="37" as="geometry" />
        </mxCell>
        <mxCell id="kvwh2v-Nk0NHKlyejy3k-26" value="" style="group;aspect=fixed;" vertex="1" connectable="0" parent="Hvadh7sFhpXeqMrMuhxV-1">
          <mxGeometry x="447" y="300" width="29" height="29" as="geometry" />
        </mxCell>
        <mxCell id="kvwh2v-Nk0NHKlyejy3k-27" value="" style="group" vertex="1" connectable="0" parent="kvwh2v-Nk0NHKlyejy3k-26">
          <mxGeometry width="29" height="29" as="geometry" />
        </mxCell>
        <mxCell id="kvwh2v-Nk0NHKlyejy3k-28" value="" style="whiteSpace=wrap;html=1;aspect=fixed;fillColor=#001135;strokeColor=none;connectable=1;allowArrows=1;fontFamily=Manrope;fontSource=https%3A%2F%2Ffonts.googleapis.com%2Fcss%3Ffamily%3DManrope;" vertex="1" parent="kvwh2v-Nk0NHKlyejy3k-27">
          <mxGeometry width="29" height="29" as="geometry" />
        </mxCell>
        <mxCell id="kvwh2v-Nk0NHKlyejy3k-29" value="" style="endArrow=open;html=1;edgeStyle=orthogonalEdgeStyle;rounded=0;endFill=0;startSize=6;endSize=2;strokeColor=#FFFFFF;fontFamily=Manrope;fontSource=https%3A%2F%2Ffonts.googleapis.com%2Fcss%3Ffamily%3DManrope;" edge="1" parent="kvwh2v-Nk0NHKlyejy3k-27">
          <mxGeometry width="48.33333333333334" height="48.33333333333334" as="geometry">
            <mxPoint x="2.9" y="11.6" as="sourcePoint" />
            <mxPoint x="10.633333333333335" y="2.9" as="targetPoint" />
            <Array as="points">
              <mxPoint x="10.633333333333335" y="11.6" />
            </Array>
          </mxGeometry>
        </mxCell>
        <mxCell id="kvwh2v-Nk0NHKlyejy3k-30" value="" style="endArrow=open;html=1;edgeStyle=orthogonalEdgeStyle;rounded=0;endFill=0;startSize=6;endSize=2;strokeColor=#FFFFFF;fontFamily=Manrope;fontSource=https%3A%2F%2Ffonts.googleapis.com%2Fcss%3Ffamily%3DManrope;" edge="1" parent="kvwh2v-Nk0NHKlyejy3k-27">
          <mxGeometry width="48.33333333333334" height="48.33333333333334" as="geometry">
            <mxPoint x="10.633333333333335" y="26.1" as="sourcePoint" />
            <mxPoint x="2.9" y="18.366666666666667" as="targetPoint" />
            <Array as="points">
              <mxPoint x="10.633333333333335" y="18.366666666666667" />
            </Array>
          </mxGeometry>
        </mxCell>
        <mxCell id="kvwh2v-Nk0NHKlyejy3k-31" value="" style="endArrow=open;html=1;edgeStyle=orthogonalEdgeStyle;rounded=0;endFill=0;startSize=6;endSize=2;strokeColor=#FFFFFF;fontFamily=Manrope;fontSource=https%3A%2F%2Ffonts.googleapis.com%2Fcss%3Ffamily%3DManrope;" edge="1" parent="kvwh2v-Nk0NHKlyejy3k-27">
          <mxGeometry width="48.33333333333334" height="48.33333333333334" as="geometry">
            <mxPoint x="17.4" y="2.9" as="sourcePoint" />
            <mxPoint x="26.1" y="11.6" as="targetPoint" />
            <Array as="points">
              <mxPoint x="17.4" y="11.6" />
            </Array>
          </mxGeometry>
        </mxCell>
        <mxCell id="kvwh2v-Nk0NHKlyejy3k-32" value="" style="endArrow=open;html=1;edgeStyle=orthogonalEdgeStyle;rounded=0;endFill=0;startSize=6;endSize=2;strokeColor=#FFFFFF;fontFamily=Manrope;fontSource=https%3A%2F%2Ffonts.googleapis.com%2Fcss%3Ffamily%3DManrope;" edge="1" parent="kvwh2v-Nk0NHKlyejy3k-27">
          <mxGeometry width="48.33333333333334" height="48.33333333333334" as="geometry">
            <mxPoint x="26.1" y="18.366666666666667" as="sourcePoint" />
            <mxPoint x="17.4" y="26.1" as="targetPoint" />
            <Array as="points">
              <mxPoint x="17.4" y="18.366666666666667" />
            </Array>
          </mxGeometry>
        </mxCell>
        <mxCell id="kvwh2v-Nk0NHKlyejy3k-33" value="" style="shape=image;verticalLabelPosition=bottom;labelBackgroundColor=#ffffff;verticalAlign=top;aspect=fixed;imageAspect=0;image=data:image/svg+xml,PHN2ZyB4bWxucz0iaHR0cDovL3d3dy53My5vcmcvMjAwMC9zdmciIHhtbG5zOnhsaW5rPSJodHRwOi8vd3d3LnczLm9yZy8xOTk5L3hsaW5rIiB2aWV3Qm94PSIwLjUgMC41IDQ3LjA5NzAwMDEyMjA3MDMxIDI2Ljc0Mzk5OTQ4MTIwMTE3MiIgZmlsbD0iI2ZmZiIgZmlsbC1ydWxlPSJldmVub2RkIiBzdHJva2U9IiMwMDAiIHN0cm9rZS1saW5lY2FwPSJyb3VuZCIgc3Ryb2tlLWxpbmVqb2luPSJyb3VuZCIgd2lkdGg9IjQ3LjA5NzAwMDEyMjA3MDMxIiBoZWlnaHQ9IjI2Ljc0Mzk5OTQ4MTIwMTE3MiI+PHN0eWxlPi5Ce2ZpbGwtcnVsZTpub256ZXJvfS5De2ZpbGw6IzAwMH0uRHtzdHJva2U6bm9uZX0uRXtzdHJva2U6IzM5NGQ1NH0uRntzdHJva2UtbGluZWpvaW46bWl0ZXJ9Lkd7c3Ryb2tlLWxpbmVjYXA6YnV0dH0uSHtzdHJva2Utd2lkdGg6LjI4OH0uSXtmaWxsOiMwMGFjZDN9Lkp7ZmlsbDojMjBjMmVmfTwvc3R5bGU+PHVzZSB4bGluazpocmVmPSIjQSIgeD0iLjUiIHk9Ii41Ii8+PHN5bWJvbCBpZD0iQSIgb3ZlcmZsb3c9InZpc2libGUiPjxnIGNsYXNzPSJEIj48cGF0aCBkPSJNMjcuMjM1IDguNDQ1aDQuMjIydjQuMzE2aDIuMTM1Yy45ODYgMCAyLS4xNzUgMi45MzQtLjQ5Mi40NTktLjE1NS45NzQtLjM3MiAxLjQyNi0uNjQ2LS41OTYtLjc3OC0uOS0xLjc2MS0uOTktMi43MjktLjEyMi0xLjMxNy4xNDQtMy4wMzIgMS4wMzQtNC4wNjNsLjQ0NC0uNTEzLjUyOS40MjVjMS4zMyAxLjA3IDIuNDUyIDIuNTY3IDIuNjQ5IDQuMjY5IDEuNjAzLS40NzIgMy40ODYtLjM2IDQuODk5LjQ1NmwuNTguMzM1LS4zMDUuNTk2Yy0xLjE5NCAyLjMzNS0zLjY5MyAzLjA1Ny02LjEzNiAyLjkyOS0zLjY1NiA5LjEwNC0xMS42MTQgMTMuNDE2LTIxLjI2NSAxMy40MTYtNC45ODYgMC05LjU2LTEuODY0LTEyLjE2NS02LjI4Ny0uMTUzLS4yNzUtLjI4My0uNTYyLS40MjItLjg0NC0uODgtMS45NDctMS4xNzMtNC4wOC0uOTc1LTYuMjExbC4wNTktLjYzOGgzLjYxMVY4LjQ0NWg0LjIyMlY0LjIyMmg4LjQ0NVYwaDUuMDY3djguNDQ1IiBmaWxsPSIjMzk0ZDU0IiBjbGFzcz0iQiIvPjxwYXRoIGZpbGw9IiMxN2I1ZWIiIGQ9Ik00Ni4xNjcgMTAuMDY5Yy0xLjA5MiAyLjEzMy0zLjQ4MyAyLjc3Mi01Ljk3NSAyLjUxNy0zLjUxMyA5LjMwOC0xMS40NSAxMy40NTEtMjAuODAzIDEzLjQ1MS00LjIyMyAwLTcuODgxLTEuMzMtMTAuMzM1LTQuMDg1LS4xNDUtLjIwNC0uMjI4LS4zNzQtLjQ1Ni0uNjgxLS4yMTgtLjI5My0uNDI5LS41OTItLjYwOC0uOTFsLS4zMzktLjYwOGMtLjkyOC0xLjgyNS0xLjMzMi0zLjk1OS0xLjExOC02LjI4OGgyNy4wNThjMi4yMjMgMCA0LjM5NC0uODI5IDUuNDI1LTEuNzQ1LTEuODQ2LTEuNTAxLTEuNjYzLTUuMDY3LS40ODctNi40MjcgMS4wMjEuODIgMi42NjggMi41NDkgMi4zODMgNC43NSAxLjI4Ni0uNjQ4IDMuNTE2LS45NjkgNS4yNTQuMDI2eiIvPjxwYXRoIGQ9Ik0yMi44NzIuNzA0aDMuNjZ2My42NmgtMy42NnoiIGNsYXNzPSJCIEoiLz48L2c+PHVzZSB4bGluazpocmVmPSIjQyIgY2xhc3M9IkIgQyBFIEYgRyBIIi8+PHBhdGggZD0iTTEwLjIwNSAxMi44MWgzLjY2VjkuMTUxaC0zLjY2eiIgY2xhc3M9IkIgRCBJIi8+PHVzZSB4bGluazpocmVmPSIjRCIgY2xhc3M9IkIgQyBFIEYgRyBIIi8+PGcgY2xhc3M9IkQiPjxwYXRoIGQ9Ik0xNC40MjcgNC45MjRoMy42NnYzLjY1OWgtMy42NnoiIGNsYXNzPSJCIEkiLz48cGF0aCBkPSJNMTQuNDI3IDkuMTQ4aDMuNjZ2My42NmgtMy42NnoiIGNsYXNzPSJCIEoiLz48L2c+PGcgY2xhc3M9IkMgRSBGIEcgSCI+PHVzZSB4bGluazpocmVmPSIjQyIgeD0iLTguNDQ1IiB5PSI0LjIyMyIgY2xhc3M9IkIiLz48dXNlIHhsaW5rOmhyZWY9IiNDIiB4PSItOC40NDUiIHk9IjguNDQ1IiBjbGFzcz0iQiIvPjwvZz48ZyBjbGFzcz0iRCI+PHBhdGggZD0iTTE4LjY0OSAxMi44MWgzLjY2VjkuMTUxaC0zLjY2eiIgY2xhc3M9IkIgSSIvPjxwYXRoIGQ9Ik0xOC42NDkgOC41ODZoMy42NnYtMy42NmgtMy42NnoiIGNsYXNzPSJCIEoiLz48L2c+PGcgY2xhc3M9IkMgRSBGIEcgSCI+PHVzZSB4bGluazpocmVmPSIjRCIgeD0iOC40NDUiIGNsYXNzPSJCIi8+PHVzZSB4bGluazpocmVmPSIjRCIgeD0iOC40NDUiIHk9Ii00LjIyMiIgY2xhc3M9IkIiLz48L2c+PGcgY2xhc3M9IkQiPjxwYXRoIGQ9Ik0yMi44NzIgNC45MjRoMy42NnYzLjY1OWgtMy42NnoiIGNsYXNzPSJCIEkiLz48cGF0aCBkPSJNMjIuODcyIDkuMTQ4aDMuNjZ2My42NmgtMy42NnoiIGNsYXNzPSJCIEoiLz48L2c+PGcgY2xhc3M9IkMgRSBGIEcgSCI+PHVzZSB4bGluazpocmVmPSIjQyIgeT0iNC4yMjMiIGNsYXNzPSJCIi8+PHVzZSB4bGluazpocmVmPSIjQyIgeT0iOC40NDUiIGNsYXNzPSJCIi8+PC9nPjxwYXRoIGQ9Ik0yNy4wOTQgMTIuODFoMy42NlY5LjE1MWgtMy42NnoiIGNsYXNzPSJCIEQgSSIvPjx1c2UgeGxpbms6aHJlZj0iI0QiIHg9IjE2Ljg4OSIgY2xhc3M9IkIgQyBFIEYgRyBIIi8+PGcgY2xhc3M9IkQiPjxwYXRoIGQ9Ik0xOC44NjYgMTkuNzUxYTEuMDEgMS4wMSAwIDAgMS0xLjAxIDEuMDEgMS4wMSAxLjAxIDAgMCAxLTEuMDEtMS4wMSAxLjAxIDEuMDEgMCAwIDEgMS4wMS0xLjAxIDEuMDEgMS4wMSAwIDAgMSAxLjAxIDEuMDF6IiBmaWxsPSIjZDRlZGYxIiBjbGFzcz0iQiIvPjxwYXRoIGQ9Ik0xOC4xMTkgMTkuMDc3Yy0uMTE1LjA2Ny0uMTcxLjIwMy0uMTM2LjMzMXMuMTUxLjIxOC4yODQuMjE5Yy4xMTIgMCAuMjA5LS4wNjIuMjU5LS4xNTRhLjcyLjcyIDAgMCAxIC4wNTUuMjc3YzAgLjM5OS0uMzI0LjcyMy0uNzIzLjcyM3MtLjcyMy0uMzI0LS43MjMtLjcyMy4zMjQtLjcyMy43MjMtLjcyM2EuNzIuNzIgMCAwIDEgLjI2Mi4wNDl6TTAgMTYuNjQ5aDQ2Ljk2NGMtMS4wMjMtLjI1OS0zLjIzNS0uNjEtMi44NzEtMS45NS0xLjg2IDIuMTUyLTYuMzQ0IDEuNTA5LTcuNDc1LjQ0OS0xLjI2IDEuODI4LTguNTk3IDEuMTMzLTkuMTA4LS4yOTEtMS41OCAxLjg1NC02LjQ3NSAxLjg1NC04LjA1NSAwLS41MTIgMS40MjItNy44NDggMi4xMTktOS4xMDkuMjkxLTEuMTMyIDEuMDYxLTUuNjE0IDEuNzAzLTcuNDc1LS40NDkuMzY1IDEuMzQtMS44NDggMS42OTEtMi44NzEgMS45NSIgZmlsbD0iIzM5NGQ1NCIgY2xhc3M9IkIiLz48cGF0aCBkPSJNNy45OSAyMC4zNjFsLS4zMzktLjYwOGMtLjUxOC0xLjAxNy0uODcyLTIuMTMxLTEuMDQ4LTMuMzE4aDMxLjcxNWMtNC4wNTcgNi42MS0xMC45ODMgOS42MDItMTguOTMgOS42MDItNC4yMjMgMC03Ljg4MS0xLjMzLTEwLjMzNS00LjA4NS0uMTQ1LS4yMDQtLjIyOC0uMzc0LS40NTYtLjY4MS0uMjE4LS4yOTMtLjQyOS0uNTkyLS42MDgtLjkxeiIgZmlsbC1vcGFjaXR5PSIuMTciIGNsYXNzPSJDIi8+PHBhdGggZmlsbD0iI2Q0ZWRmMSIgZD0iTTIwLjU0MSAyNi4wMThjLTIuNS0xLjE4Ny0zLjg3My0yLjgtNC42MzYtNC41NmwtNi45NzYuMzA0LjEyNS4xODljMi40NTQgMi43NTYgNi4xMTIgNC4wODUgMTAuMzM1IDQuMDg1YTMwLjkyIDMwLjkyIDAgMCAwIDEuMTQ2LS4wMjFsLjA0My0uMDAyIi8+PHBhdGggZD0iTTQxLjA4NyA5Ljk1OWMxLjMwNS0uNTg5IDMuNDE4LS44NDEgNS4wNzguMTE3LTEuMDg5IDIuMTI3LTMuNDggMi43NjYtNS45NzMgMi41MS0zLjUxMyA5LjMwOC0xMS40NSAxMy40NTEtMjAuODAzIDEzLjQ1MS00LjIyMyAwLTcuODgxLTEuMzMtMTAuMzM1LTQuMDg1LS4xNDUtLjIwNC0uMjI4LS4zNzQtLjQ1Ni0uNjgxLS4yMTgtLjI5My0uNDI5LS41OTItLjYwOC0uOTFsLS4zMzktLjYwOGMtLjkyOC0xLjgyNS0xLjMzMi0zLjk1OS0xLjExOC02LjI5aDEuNjAzYy0uMTEgMy41NTQgMS4yMDQgNi4yNTIgMy41MzcgNy44ODNsMS4wMTYuNjEyYzMuMTgzIDEuNjMyIDcuNzk2IDEuNjIzIDEzLjA4OC0uNDEgNS45MzItMi4yNzkgMTEuNDU3LTYuNjE0IDE1LjMxNi0xMS41OTJsLS4wMDcuMDEiIGZpbGwtb3BhY2l0eT0iLjE0IiBjbGFzcz0iQyIvPjwvZz48cGF0aCBkPSJNOC40MjUgMjEuNjExYzIuNjE2LjE0MyA1LjQwNy4xNjkgNy44NDItLjU5NSIgZmlsbD0ibm9uZSIgc3Ryb2tlLXdpZHRoPSIuNjI4IiBjbGFzcz0iRSBGIi8+PC9zeW1ib2w+PGRlZnM+PHBhdGggaWQ9IkMiIGQ9Ik0yMy4zMjEgNC4wNTh2LTMuMDVtLjU0OSAzLjA1di0zLjA1bS41NTQgMy4wNXYtMy4wNW0uNTU1IDMuMDV2LTMuMDVtLjU1NSAzLjA1di0zLjA1bS41NDggMy4wNXYtMy4wNSIvPjxwYXRoIGlkPSJEIiBkPSJNMTAuNjU0IDkuNDUzdjMuMDVtLjU0OS0zLjA1djMuMDVtLjU1NC0zLjA1djMuMDVtLjU1NS0zLjA1djMuMDVtLjU1NS0zLjA1djMuMDVtLjU0OC0zLjA1djMuMDUiLz48L2RlZnM+PC9zdmc+;" vertex="1" parent="Hvadh7sFhpXeqMrMuhxV-1">
          <mxGeometry x="432" y="289" width="27" height="15.51" as="geometry" />
        </mxCell>
        <mxCell id="kvwh2v-Nk0NHKlyejy3k-34" value="" style="rounded=1;whiteSpace=wrap;html=1;" vertex="1" parent="Hvadh7sFhpXeqMrMuhxV-1">
          <mxGeometry x="489.89" y="345" width="39" height="37" as="geometry" />
        </mxCell>
        <mxCell id="kvwh2v-Nk0NHKlyejy3k-35" value="" style="group;aspect=fixed;" vertex="1" connectable="0" parent="Hvadh7sFhpXeqMrMuhxV-1">
          <mxGeometry x="494.89" y="349" width="29" height="29" as="geometry" />
        </mxCell>
        <mxCell id="kvwh2v-Nk0NHKlyejy3k-36" value="" style="group" vertex="1" connectable="0" parent="kvwh2v-Nk0NHKlyejy3k-35">
          <mxGeometry width="29" height="29" as="geometry" />
        </mxCell>
        <mxCell id="kvwh2v-Nk0NHKlyejy3k-37" value="" style="whiteSpace=wrap;html=1;aspect=fixed;fillColor=#001135;strokeColor=none;connectable=1;allowArrows=1;fontFamily=Manrope;fontSource=https%3A%2F%2Ffonts.googleapis.com%2Fcss%3Ffamily%3DManrope;" vertex="1" parent="kvwh2v-Nk0NHKlyejy3k-36">
          <mxGeometry width="29" height="29" as="geometry" />
        </mxCell>
        <mxCell id="kvwh2v-Nk0NHKlyejy3k-38" value="" style="endArrow=open;html=1;edgeStyle=orthogonalEdgeStyle;rounded=0;endFill=0;startSize=6;endSize=2;strokeColor=#FFFFFF;fontFamily=Manrope;fontSource=https%3A%2F%2Ffonts.googleapis.com%2Fcss%3Ffamily%3DManrope;" edge="1" parent="kvwh2v-Nk0NHKlyejy3k-36">
          <mxGeometry width="48.33333333333334" height="48.33333333333334" as="geometry">
            <mxPoint x="2.9" y="11.6" as="sourcePoint" />
            <mxPoint x="10.633333333333335" y="2.9" as="targetPoint" />
            <Array as="points">
              <mxPoint x="10.633333333333335" y="11.6" />
            </Array>
          </mxGeometry>
        </mxCell>
        <mxCell id="kvwh2v-Nk0NHKlyejy3k-39" value="" style="endArrow=open;html=1;edgeStyle=orthogonalEdgeStyle;rounded=0;endFill=0;startSize=6;endSize=2;strokeColor=#FFFFFF;fontFamily=Manrope;fontSource=https%3A%2F%2Ffonts.googleapis.com%2Fcss%3Ffamily%3DManrope;" edge="1" parent="kvwh2v-Nk0NHKlyejy3k-36">
          <mxGeometry width="48.33333333333334" height="48.33333333333334" as="geometry">
            <mxPoint x="10.633333333333335" y="26.1" as="sourcePoint" />
            <mxPoint x="2.9" y="18.366666666666667" as="targetPoint" />
            <Array as="points">
              <mxPoint x="10.633333333333335" y="18.366666666666667" />
            </Array>
          </mxGeometry>
        </mxCell>
        <mxCell id="kvwh2v-Nk0NHKlyejy3k-40" value="" style="endArrow=open;html=1;edgeStyle=orthogonalEdgeStyle;rounded=0;endFill=0;startSize=6;endSize=2;strokeColor=#FFFFFF;fontFamily=Manrope;fontSource=https%3A%2F%2Ffonts.googleapis.com%2Fcss%3Ffamily%3DManrope;" edge="1" parent="kvwh2v-Nk0NHKlyejy3k-36">
          <mxGeometry width="48.33333333333334" height="48.33333333333334" as="geometry">
            <mxPoint x="17.4" y="2.9" as="sourcePoint" />
            <mxPoint x="26.1" y="11.6" as="targetPoint" />
            <Array as="points">
              <mxPoint x="17.4" y="11.6" />
            </Array>
          </mxGeometry>
        </mxCell>
        <mxCell id="kvwh2v-Nk0NHKlyejy3k-41" value="" style="endArrow=open;html=1;edgeStyle=orthogonalEdgeStyle;rounded=0;endFill=0;startSize=6;endSize=2;strokeColor=#FFFFFF;fontFamily=Manrope;fontSource=https%3A%2F%2Ffonts.googleapis.com%2Fcss%3Ffamily%3DManrope;" edge="1" parent="kvwh2v-Nk0NHKlyejy3k-36">
          <mxGeometry width="48.33333333333334" height="48.33333333333334" as="geometry">
            <mxPoint x="26.1" y="18.366666666666667" as="sourcePoint" />
            <mxPoint x="17.4" y="26.1" as="targetPoint" />
            <Array as="points">
              <mxPoint x="17.4" y="18.366666666666667" />
            </Array>
          </mxGeometry>
        </mxCell>
        <mxCell id="kvwh2v-Nk0NHKlyejy3k-42" value="" style="shape=image;verticalLabelPosition=bottom;labelBackgroundColor=#ffffff;verticalAlign=top;aspect=fixed;imageAspect=0;image=data:image/svg+xml,PHN2ZyB4bWxucz0iaHR0cDovL3d3dy53My5vcmcvMjAwMC9zdmciIHhtbG5zOnhsaW5rPSJodHRwOi8vd3d3LnczLm9yZy8xOTk5L3hsaW5rIiB2aWV3Qm94PSIwLjUgMC41IDQ3LjA5NzAwMDEyMjA3MDMxIDI2Ljc0Mzk5OTQ4MTIwMTE3MiIgZmlsbD0iI2ZmZiIgZmlsbC1ydWxlPSJldmVub2RkIiBzdHJva2U9IiMwMDAiIHN0cm9rZS1saW5lY2FwPSJyb3VuZCIgc3Ryb2tlLWxpbmVqb2luPSJyb3VuZCIgd2lkdGg9IjQ3LjA5NzAwMDEyMjA3MDMxIiBoZWlnaHQ9IjI2Ljc0Mzk5OTQ4MTIwMTE3MiI+PHN0eWxlPi5Ce2ZpbGwtcnVsZTpub256ZXJvfS5De2ZpbGw6IzAwMH0uRHtzdHJva2U6bm9uZX0uRXtzdHJva2U6IzM5NGQ1NH0uRntzdHJva2UtbGluZWpvaW46bWl0ZXJ9Lkd7c3Ryb2tlLWxpbmVjYXA6YnV0dH0uSHtzdHJva2Utd2lkdGg6LjI4OH0uSXtmaWxsOiMwMGFjZDN9Lkp7ZmlsbDojMjBjMmVmfTwvc3R5bGU+PHVzZSB4bGluazpocmVmPSIjQSIgeD0iLjUiIHk9Ii41Ii8+PHN5bWJvbCBpZD0iQSIgb3ZlcmZsb3c9InZpc2libGUiPjxnIGNsYXNzPSJEIj48cGF0aCBkPSJNMjcuMjM1IDguNDQ1aDQuMjIydjQuMzE2aDIuMTM1Yy45ODYgMCAyLS4xNzUgMi45MzQtLjQ5Mi40NTktLjE1NS45NzQtLjM3MiAxLjQyNi0uNjQ2LS41OTYtLjc3OC0uOS0xLjc2MS0uOTktMi43MjktLjEyMi0xLjMxNy4xNDQtMy4wMzIgMS4wMzQtNC4wNjNsLjQ0NC0uNTEzLjUyOS40MjVjMS4zMyAxLjA3IDIuNDUyIDIuNTY3IDIuNjQ5IDQuMjY5IDEuNjAzLS40NzIgMy40ODYtLjM2IDQuODk5LjQ1NmwuNTguMzM1LS4zMDUuNTk2Yy0xLjE5NCAyLjMzNS0zLjY5MyAzLjA1Ny02LjEzNiAyLjkyOS0zLjY1NiA5LjEwNC0xMS42MTQgMTMuNDE2LTIxLjI2NSAxMy40MTYtNC45ODYgMC05LjU2LTEuODY0LTEyLjE2NS02LjI4Ny0uMTUzLS4yNzUtLjI4My0uNTYyLS40MjItLjg0NC0uODgtMS45NDctMS4xNzMtNC4wOC0uOTc1LTYuMjExbC4wNTktLjYzOGgzLjYxMVY4LjQ0NWg0LjIyMlY0LjIyMmg4LjQ0NVYwaDUuMDY3djguNDQ1IiBmaWxsPSIjMzk0ZDU0IiBjbGFzcz0iQiIvPjxwYXRoIGZpbGw9IiMxN2I1ZWIiIGQ9Ik00Ni4xNjcgMTAuMDY5Yy0xLjA5MiAyLjEzMy0zLjQ4MyAyLjc3Mi01Ljk3NSAyLjUxNy0zLjUxMyA5LjMwOC0xMS40NSAxMy40NTEtMjAuODAzIDEzLjQ1MS00LjIyMyAwLTcuODgxLTEuMzMtMTAuMzM1LTQuMDg1LS4xNDUtLjIwNC0uMjI4LS4zNzQtLjQ1Ni0uNjgxLS4yMTgtLjI5My0uNDI5LS41OTItLjYwOC0uOTFsLS4zMzktLjYwOGMtLjkyOC0xLjgyNS0xLjMzMi0zLjk1OS0xLjExOC02LjI4OGgyNy4wNThjMi4yMjMgMCA0LjM5NC0uODI5IDUuNDI1LTEuNzQ1LTEuODQ2LTEuNTAxLTEuNjYzLTUuMDY3LS40ODctNi40MjcgMS4wMjEuODIgMi42NjggMi41NDkgMi4zODMgNC43NSAxLjI4Ni0uNjQ4IDMuNTE2LS45NjkgNS4yNTQuMDI2eiIvPjxwYXRoIGQ9Ik0yMi44NzIuNzA0aDMuNjZ2My42NmgtMy42NnoiIGNsYXNzPSJCIEoiLz48L2c+PHVzZSB4bGluazpocmVmPSIjQyIgY2xhc3M9IkIgQyBFIEYgRyBIIi8+PHBhdGggZD0iTTEwLjIwNSAxMi44MWgzLjY2VjkuMTUxaC0zLjY2eiIgY2xhc3M9IkIgRCBJIi8+PHVzZSB4bGluazpocmVmPSIjRCIgY2xhc3M9IkIgQyBFIEYgRyBIIi8+PGcgY2xhc3M9IkQiPjxwYXRoIGQ9Ik0xNC40MjcgNC45MjRoMy42NnYzLjY1OWgtMy42NnoiIGNsYXNzPSJCIEkiLz48cGF0aCBkPSJNMTQuNDI3IDkuMTQ4aDMuNjZ2My42NmgtMy42NnoiIGNsYXNzPSJCIEoiLz48L2c+PGcgY2xhc3M9IkMgRSBGIEcgSCI+PHVzZSB4bGluazpocmVmPSIjQyIgeD0iLTguNDQ1IiB5PSI0LjIyMyIgY2xhc3M9IkIiLz48dXNlIHhsaW5rOmhyZWY9IiNDIiB4PSItOC40NDUiIHk9IjguNDQ1IiBjbGFzcz0iQiIvPjwvZz48ZyBjbGFzcz0iRCI+PHBhdGggZD0iTTE4LjY0OSAxMi44MWgzLjY2VjkuMTUxaC0zLjY2eiIgY2xhc3M9IkIgSSIvPjxwYXRoIGQ9Ik0xOC42NDkgOC41ODZoMy42NnYtMy42NmgtMy42NnoiIGNsYXNzPSJCIEoiLz48L2c+PGcgY2xhc3M9IkMgRSBGIEcgSCI+PHVzZSB4bGluazpocmVmPSIjRCIgeD0iOC40NDUiIGNsYXNzPSJCIi8+PHVzZSB4bGluazpocmVmPSIjRCIgeD0iOC40NDUiIHk9Ii00LjIyMiIgY2xhc3M9IkIiLz48L2c+PGcgY2xhc3M9IkQiPjxwYXRoIGQ9Ik0yMi44NzIgNC45MjRoMy42NnYzLjY1OWgtMy42NnoiIGNsYXNzPSJCIEkiLz48cGF0aCBkPSJNMjIuODcyIDkuMTQ4aDMuNjZ2My42NmgtMy42NnoiIGNsYXNzPSJCIEoiLz48L2c+PGcgY2xhc3M9IkMgRSBGIEcgSCI+PHVzZSB4bGluazpocmVmPSIjQyIgeT0iNC4yMjMiIGNsYXNzPSJCIi8+PHVzZSB4bGluazpocmVmPSIjQyIgeT0iOC40NDUiIGNsYXNzPSJCIi8+PC9nPjxwYXRoIGQ9Ik0yNy4wOTQgMTIuODFoMy42NlY5LjE1MWgtMy42NnoiIGNsYXNzPSJCIEQgSSIvPjx1c2UgeGxpbms6aHJlZj0iI0QiIHg9IjE2Ljg4OSIgY2xhc3M9IkIgQyBFIEYgRyBIIi8+PGcgY2xhc3M9IkQiPjxwYXRoIGQ9Ik0xOC44NjYgMTkuNzUxYTEuMDEgMS4wMSAwIDAgMS0xLjAxIDEuMDEgMS4wMSAxLjAxIDAgMCAxLTEuMDEtMS4wMSAxLjAxIDEuMDEgMCAwIDEgMS4wMS0xLjAxIDEuMDEgMS4wMSAwIDAgMSAxLjAxIDEuMDF6IiBmaWxsPSIjZDRlZGYxIiBjbGFzcz0iQiIvPjxwYXRoIGQ9Ik0xOC4xMTkgMTkuMDc3Yy0uMTE1LjA2Ny0uMTcxLjIwMy0uMTM2LjMzMXMuMTUxLjIxOC4yODQuMjE5Yy4xMTIgMCAuMjA5LS4wNjIuMjU5LS4xNTRhLjcyLjcyIDAgMCAxIC4wNTUuMjc3YzAgLjM5OS0uMzI0LjcyMy0uNzIzLjcyM3MtLjcyMy0uMzI0LS43MjMtLjcyMy4zMjQtLjcyMy43MjMtLjcyM2EuNzIuNzIgMCAwIDEgLjI2Mi4wNDl6TTAgMTYuNjQ5aDQ2Ljk2NGMtMS4wMjMtLjI1OS0zLjIzNS0uNjEtMi44NzEtMS45NS0xLjg2IDIuMTUyLTYuMzQ0IDEuNTA5LTcuNDc1LjQ0OS0xLjI2IDEuODI4LTguNTk3IDEuMTMzLTkuMTA4LS4yOTEtMS41OCAxLjg1NC02LjQ3NSAxLjg1NC04LjA1NSAwLS41MTIgMS40MjItNy44NDggMi4xMTktOS4xMDkuMjkxLTEuMTMyIDEuMDYxLTUuNjE0IDEuNzAzLTcuNDc1LS40NDkuMzY1IDEuMzQtMS44NDggMS42OTEtMi44NzEgMS45NSIgZmlsbD0iIzM5NGQ1NCIgY2xhc3M9IkIiLz48cGF0aCBkPSJNNy45OSAyMC4zNjFsLS4zMzktLjYwOGMtLjUxOC0xLjAxNy0uODcyLTIuMTMxLTEuMDQ4LTMuMzE4aDMxLjcxNWMtNC4wNTcgNi42MS0xMC45ODMgOS42MDItMTguOTMgOS42MDItNC4yMjMgMC03Ljg4MS0xLjMzLTEwLjMzNS00LjA4NS0uMTQ1LS4yMDQtLjIyOC0uMzc0LS40NTYtLjY4MS0uMjE4LS4yOTMtLjQyOS0uNTkyLS42MDgtLjkxeiIgZmlsbC1vcGFjaXR5PSIuMTciIGNsYXNzPSJDIi8+PHBhdGggZmlsbD0iI2Q0ZWRmMSIgZD0iTTIwLjU0MSAyNi4wMThjLTIuNS0xLjE4Ny0zLjg3My0yLjgtNC42MzYtNC41NmwtNi45NzYuMzA0LjEyNS4xODljMi40NTQgMi43NTYgNi4xMTIgNC4wODUgMTAuMzM1IDQuMDg1YTMwLjkyIDMwLjkyIDAgMCAwIDEuMTQ2LS4wMjFsLjA0My0uMDAyIi8+PHBhdGggZD0iTTQxLjA4NyA5Ljk1OWMxLjMwNS0uNTg5IDMuNDE4LS44NDEgNS4wNzguMTE3LTEuMDg5IDIuMTI3LTMuNDggMi43NjYtNS45NzMgMi41MS0zLjUxMyA5LjMwOC0xMS40NSAxMy40NTEtMjAuODAzIDEzLjQ1MS00LjIyMyAwLTcuODgxLTEuMzMtMTAuMzM1LTQuMDg1LS4xNDUtLjIwNC0uMjI4LS4zNzQtLjQ1Ni0uNjgxLS4yMTgtLjI5My0uNDI5LS41OTItLjYwOC0uOTFsLS4zMzktLjYwOGMtLjkyOC0xLjgyNS0xLjMzMi0zLjk1OS0xLjExOC02LjI5aDEuNjAzYy0uMTEgMy41NTQgMS4yMDQgNi4yNTIgMy41MzcgNy44ODNsMS4wMTYuNjEyYzMuMTgzIDEuNjMyIDcuNzk2IDEuNjIzIDEzLjA4OC0uNDEgNS45MzItMi4yNzkgMTEuNDU3LTYuNjE0IDE1LjMxNi0xMS41OTJsLS4wMDcuMDEiIGZpbGwtb3BhY2l0eT0iLjE0IiBjbGFzcz0iQyIvPjwvZz48cGF0aCBkPSJNOC40MjUgMjEuNjExYzIuNjE2LjE0MyA1LjQwNy4xNjkgNy44NDItLjU5NSIgZmlsbD0ibm9uZSIgc3Ryb2tlLXdpZHRoPSIuNjI4IiBjbGFzcz0iRSBGIi8+PC9zeW1ib2w+PGRlZnM+PHBhdGggaWQ9IkMiIGQ9Ik0yMy4zMjEgNC4wNTh2LTMuMDVtLjU0OSAzLjA1di0zLjA1bS41NTQgMy4wNXYtMy4wNW0uNTU1IDMuMDV2LTMuMDVtLjU1NSAzLjA1di0zLjA1bS41NDggMy4wNXYtMy4wNSIvPjxwYXRoIGlkPSJEIiBkPSJNMTAuNjU0IDkuNDUzdjMuMDVtLjU0OS0zLjA1djMuMDVtLjU1NC0zLjA1djMuMDVtLjU1NS0zLjA1djMuMDVtLjU1NS0zLjA1djMuMDVtLjU0OC0zLjA1djMuMDUiLz48L2RlZnM+PC9zdmc+;" vertex="1" parent="Hvadh7sFhpXeqMrMuhxV-1">
          <mxGeometry x="515.78" y="340" width="27" height="15.51" as="geometry" />
        </mxCell>
        <mxCell id="kvwh2v-Nk0NHKlyejy3k-43" value="" style="rounded=0;orthogonalLoop=1;jettySize=auto;html=1;fontFamily=Manrope;fontSize=12;fontColor=#FFFFFF;endArrow=oval;endFill=1;startArrow=oval;startFill=1;strokeColor=#98A2AE;entryX=0.409;entryY=0.987;entryDx=0;entryDy=0;exitX=0.947;exitY=0.066;exitDx=0;exitDy=0;endSize=3;startSize=3;entryPerimeter=0;exitPerimeter=0;" edge="1" parent="Hvadh7sFhpXeqMrMuhxV-1" source="kvwh2v-Nk0NHKlyejy3k-17" target="kvwh2v-Nk0NHKlyejy3k-25">
          <mxGeometry relative="1" as="geometry">
            <mxPoint x="439.53553390593277" y="344.21446609406723" as="sourcePoint" />
            <mxPoint x="456.42999999999995" y="340.51" as="targetPoint" />
          </mxGeometry>
        </mxCell>
        <mxCell id="kvwh2v-Nk0NHKlyejy3k-49" value="" style="rounded=0;orthogonalLoop=1;jettySize=auto;html=1;fontFamily=Manrope;fontSize=12;fontColor=#FFFFFF;endArrow=oval;endFill=1;startArrow=oval;startFill=1;strokeColor=#98A2AE;entryX=0.666;entryY=0.987;entryDx=0;entryDy=0;exitX=0.018;exitY=0.075;exitDx=0;exitDy=0;endSize=3;startSize=3;exitPerimeter=0;entryPerimeter=0;" edge="1" parent="Hvadh7sFhpXeqMrMuhxV-1" source="kvwh2v-Nk0NHKlyejy3k-34" target="kvwh2v-Nk0NHKlyejy3k-25">
          <mxGeometry relative="1" as="geometry">
            <mxPoint x="485.21000000000004" y="344.37" as="sourcePoint" />
            <mxPoint x="466.63" y="341.1099999999999" as="targetPoint" />
          </mxGeometry>
        </mxCell>
        <mxCell id="kvwh2v-Nk0NHKlyejy3k-50" value="" style="rounded=0;orthogonalLoop=1;jettySize=auto;html=1;fontFamily=Manrope;fontSize=12;fontColor=#FFFFFF;endArrow=oval;endFill=1;startArrow=oval;startFill=1;strokeColor=#DCDEE0;exitX=1;exitY=0.5;exitDx=0;exitDy=0;endSize=3;startSize=3;" edge="1" parent="Hvadh7sFhpXeqMrMuhxV-1">
          <mxGeometry relative="1" as="geometry">
            <mxPoint x="198.5" y="375" as="sourcePoint" />
            <mxPoint x="249.25" y="375" as="targetPoint" />
          </mxGeometry>
        </mxCell>
        <mxCell id="kvwh2v-Nk0NHKlyejy3k-51" value="" style="rounded=0;orthogonalLoop=1;jettySize=auto;html=1;fontFamily=Manrope;fontSize=12;fontColor=#FFFFFF;endArrow=oval;endFill=1;startArrow=oval;startFill=1;strokeColor=#DCDEE0;exitX=1;exitY=0.5;exitDx=0;exitDy=0;endSize=3;startSize=3;" edge="1" parent="Hvadh7sFhpXeqMrMuhxV-1">
          <mxGeometry relative="1" as="geometry">
            <mxPoint x="329.5" y="374" as="sourcePoint" />
            <mxPoint x="373" y="374" as="targetPoint" />
          </mxGeometry>
        </mxCell>
        <mxCell id="kvwh2v-Nk0NHKlyejy3k-52" value="" style="rounded=1;whiteSpace=wrap;html=1;fillColor=#dae8fc;strokeColor=#6c8ebf;" vertex="1" parent="Hvadh7sFhpXeqMrMuhxV-1">
          <mxGeometry x="444.89" y="395" width="39" height="37" as="geometry" />
        </mxCell>
        <mxCell id="NyylJ6giiAROOAvdf1q1-3" value="" style="shape=image;verticalLabelPosition=bottom;labelBackgroundColor=default;verticalAlign=top;aspect=fixed;imageAspect=0;image=data:image/vnd.microsoft.icon,AAABAAEAQEAAAAEAIAAoQgAAFgAAACgAAABAAAAAgAAAAAEAIAAAAAAAAAAAAAAAAAAAAAAAAAAAAAAAAAAAAAAAAAAAAAAAAAAAAAAAAAAAAAAAAAAAAAAAAAAAAAAAAAAAAAAAAAAAAAAAAAAAAAAAAAAAAAAAAAAAAAAAAAAAAAAAAAAAAAAAAAAAAAAAAAAAAAAAAAAAAAAAAAAAAAAAAAAAAAAAAAAAAAAAAAAAAAAAAAAAAAAAAAAAAAAAAAAAAAAAAAAAAAAAAAAAAAAAAAAAAAAAAAAAAAAAAAAAAAAAAAAAAAAAAAAAAAAAAAAAAAAAAAAAAAAAAAAAAAAAAAAAAAAAAAAAAAAAAAAAAAAAAAAAAAAAAAAAAAAAAAAAAAAAAAAAAAAAAAAAAAAAAAAAAAAAAAAAAAAAAAAAAAAAAAAAAAAAAAAAAAAAAAAAAAAAAAAAAAAAAAAAAAAAAAAAAAAAAAAAAAAAAAAAAAAAAAAAAAAAAAAAAAAAAAAAAAAAAAAAAAAAAAAAAAAAAAAAAAAAAAAAAAAAAAAAAAAAAAAAAAAAAAAAAAAAAAAAAAAAAAAAAAAAAAAAAAAAAAAAAAAAAAAAAAAAAAAAAAAAAAAAAAAAAAAAAAAAAAAAAAAAAAAAAAAAAAAAAAAAAAAAAAAAAAAAAAAAAAAAAAAAAAAAAAAAAAAAAAAAAAAAAAAAAAAAAAAAAAAAAAAAAAAAAAAAAAAAAAAAAAAAAAAAAAAAAAAAAAAAAAAAAAAAAAAAAAAAAAAAAAAAAAAAAAAAAAAAAAAAAAAAAAAAAAAAAAAAAAAAAAAAAAAAAAAAAAAAAAAAAAAAAAAAAAAAAAAAAAAAAAAAAAAAAAAAAAAAAAAAAAAAAAAAAAAAAAAAAAAAAAAAAAAAAAAAAAAAAAAAAAAAAAAAAAAAAAAAAAAAAAAAAAAAAAAAAAAAAAAAAAAAAAAAAAAAAAAAAAAAAAAAAAAAAAAAAAAAAAAAAAAAAAAAAAAAAAAAAAAAAAAAAAAAAAAAAAAAAAAAAAAAAAAAAAAAAAAAAAAAAAAAAAAAAAAAAAAAAAAAAAAAAAAAAAAAAAAAAAAAAAAAAAAAAAAAAAAAAAAAAAAAAAAAAAAAAAAAAAAAAAAAAAAAAAAAAAAAAAAAAAAAAAAAAAAAAAAAAAAAAAAAAAAAAAAAAAAAAAAAAAAAAAAAAAAAAAAAAAAAAAAAAAAAAAAAAAAAAAAAAAAAAAAAAAAAAAAAAAAAAAAAAAAAAAAAAAAAAAAAAAAAAAAAAAAAAAAAAAAAAAAAAAAAAAAAAAAAAAAAAAAAAAAAAAAAAAAAAAAAAAAAAAAAAAAAAAAAAAAAAAAAAAAAAAAAAAAAAAAAAAAAAAAAAAAAAAAAAAAAAAAAAAAAAAAAAAAAAAAAAAAAAAAAAAAAAAAAAAAAAAAAAAAAAAAAAAAAAAAAAAAAAAAAAAAAAAAAAAAAAAAAAAAAAAAAAAAAAAAAAAAAAAAAAAAAAAAAAAAAAAAAAAAAAAAAAAAAAAAAAAAAAAAAAAAAAAAAAAAAAAAAAAAAAAAAAAAAAAAAAAAAAAAAAAAAAAAAAAAAAAAAAAAAAAAAAAAAAAAAAAAAAAAAAAAAAAAAAAAAAAAAAAAAAAAAAAAAAAAAAAAAAAAAAAAAAAAAAAAAAAAAAAAAAAAAAAAAAAAAAAAAAAAAAAAAAAAAAAAAAAAAAAAAAAAAAAAAAAAAAAAAAAAAAAAAAAAAAAAAAAAAAAAAAAAAAAAAAAAAAAAAAAAAAAAAAAAAAAAAAAAAAAAAAAAAAAAAAAAAAAAAAAAAAAAAAAAAAAAAAAAAAAAAAAAAAAAAAAAAAAAAAAAAAAAAAAAAAAAAAAAAAAAAAAAAAAAAAAAAAAAAAAAAAAAAAAAAAAAAAAAAAAAAAAAAAAAAAAAAAAAAAAAAAAAAAAAAAAAAAAAAAAAAAAAAAAAAAAAAAAAAAAAAAAAAAAAAAAAAAAAAAAAAAAAAAAAAAAAAAAAAAAAAAAAAAAAAAAAAAAAAAAAAAAAAAAAAAAAAAAAAAAAAAAAAAAAAAAAAAAAAAAAAAAAAAAAAAAAAAAAAAAAAAAAAAAAAAAAAAAAAAAAAAAAAAAAAAAAAAAAAAAAAAAAAAAAAAAAAAAAAAAAAAAAAAAAAAAAAAAAAAAAAAAAAAAAAAAAAAAAAAAAAAAAAAAAAAAAAAAAAAAAAAAAAAAAAAAAAAAAAAAAAAAAAAAAAAAAAAAAAAAAAAAAAAAAAAAAAAAAAAAAAAAAAAAAAAAAAAAAAAAAAAAAAAAAAAAAAAAAAAAAAAAAAAAAAAAAAAAAAAAAAAAAAAAAAAAAAAAAAAAAAAAAAAAAAAAAAAAAAAAAAAAAAAAAAAAAAAAAAAAAAAAAAAAAAAAAAAAAAAAAAAAAAAAAAAAAAAAAAAAAAAAAAAAAAAAAAAAAAAAAAAAAAAAAAAAAAAAAAAAAAAAAAAAAAAAAAAAAAAAAAAAAAAAAAAAAAAAAAAAAAAAAAAAAAAAAAAAAAAAAAAAAAAAAAAAAAAAAAAAAAAAAAAAAAAAAAAAAAAAAAAAAAAAAAAAAAAAAAAAAAAAAAAAAAAAAAAAAAAAAAAAAAAAAAAAAAAAAAAAAAAAAAAAAAAAAAAAAAAAAAAAAAAAAAAAAAAAAAAAAAAAAAAAAAAAAAAAAAAAAAAAAAAAAAAAAAAAAAAAAAAAAAAAAAAAAAAAAAAAAAAAAAAAAAAAAAAAAAAAAAAAAAAAAAAAAAAAAAAAAAAAAAAAAAAAAAAAAAAAAAAAAAAAAAAAAAAAAAAAAAAAAAAAAAAAAAAAAAAAAAAAAAAAAAAAAAAAAAAAAAAAAAAAAAAAAAAAAAAAAAAAAAAAAAAAAAAAAAAAAAAAAAAAAAAAAAAAAAAAAAAAAAAAAAAAAAAAAAAAAAAAAAAAAAAAAAAAAAAAAAAAAAAAAAAAAAAAAAAAAAAAAAAAAAAAAAAAAAAAAAAAAAAAAAAAAAAAAAAAAAAAAAAAAAAAAAAAAAAAAAAAAAAAAAAAAAAAAAAAAAAAAAAAAAAAAAAAAAAAAAAAAAAAAAAAAAAAAAAAAAAAAAAAAAAAAAAAAAAAAAAAAAAAAAAAAAAAAAAAAAAAAAAAAAAAAAAAAAAAAAAAAAAAAAAAAAAAAAAAAAAAAAAAAAAAAAAAAAAAAAAAAAAAAAAAAAAAAAAAAAAAAAAAAAAAAAAAAAAAAAAAAAAAAAAAAAAAAAAAAAAAAAAAAAAAAAAAAAAAAAAAAAAAAAAAAAAAAAAAAAAAAAAAAAAAAAAAAAAAAAAAAAAAAAAAAAAAAAAAAAAAAAAAAAAAAAAAAAAAAAAAAAAAAAAAAAAAAAAAAAAAAAAAAAAAAAAAAAAAAAAAAAAAAAAJaWACKYmAA+kpIABwAAAAAAAAAAAAAAAAAAAAAAAAAAAAAAAAAAAAAAAAAAAAAAAAAAAAAAAAAAAAAAAAAAAAAAAAAAAAAAAAAAAAAAAAAAAAAAAAAAAAAAAAAAAAAAAAAAAAAAAAAAAAAAAAAAAAAAAAAAAAAAAAAAAAAAAAAAAAAAAAAAAAAAAAAAAAAAAAAAAAAAAAAAAAAAAAAAAAAAAAAAAAAAAAAAAAAAAAAAAAAAAAAAAAAAAAAAAAAAAAAAAAAAAAAAAAAAAAAAAAAAAAAAmpoAVpmZAKiamgCXnZ0ADQAAAAAAAAAAAAAAAAAAAAAAAAAAmpoAUZqaAL+amgD/mpoA/5qaANabmwAXAAAAAAAAAAAAAAAAAAAAAAAAAAAAAAAAAAAAAAAAAAAAAAAAAAAAAAAAAAAAAAAAAAAAAAAAAAAAAAAAAAAAAAAAAAAAAAAAAAAAAAAAAAAAAAAAAAAAAAAAAAAAAAAAAAAAAAAAAAAAAAAAAAAAAAAAAAAAAAAAAAAAAAAAAAAAAAAAAAAAAAAAAAAAAAAAAAAAAJmZACidnQCHm5sArpycAHScnAASAAAAAAAAAAAAAAAAAAAAAAAAAAAAAAAAnJwAapycAP+cnAD/nJwA/5ycANWdnQAnAAAAAAAAAACZmQAZnJwAtJycAP+cnAD/nJwA/5ycAP+cnAD/nJwAgQAAAAAAAAAAAAAAAAAAAAAAAAAAAAAAAAAAAAAAAAAAAAAAAAAAAAAAAAAAAAAAAAAAAAAAAAAAAAAAAAAAAAAAAAAAAAAAAAAAAAAAAAAAAAAAAAAAAAAAAAAAnZ0AQZyeALWdngC7nJ4AtZ6eAIafnwA1//8AAQAAAAAAAAAAAAAAAAAAAAAAAAAAAAAAAJ6eAFSdngD3nZ4A/52eAP+dngD/nZ4A8p2fAH+engAigIAAAgAAAAAAAAAAAAAAAP//AAGdnQBznZ4A/Z2eAP+dngD/nZ4A8pyeAHSdnQBznZ4A652eAP+dngD/nZ4A/52eAP+dngD/nZ4A/5yeAJsAAAAAAAAAAAAAAAAAAAAAAAAAAAAAAAAAAAAAAAAAAAAAAAAAAAAAAAAAAAAAAAAAAAAAAAAAAAAAAAAAAAAAAAAAAAAAAAAAAAAAAAAAAAAAAAAAAAAAAAAAAJ+hAMWfoAD/n6AA/5+gAP+foAD/n6AA/5+gAOifoACfn58AUAAAAAAAAAAAAAAAAJ+fAF2foAD8n6AA/5+gAP+foAD/n6AA/5+gAP+foAD/n6AA/5+gANT//wABpaUAEZ6gAImdnQANAAAAAJ6gAGGfoAD9n6AA/5+gAP+foAD/n6AA/5+gAP+foAD/n6AA/5+gAP+foAD/n6AA/5+gAP+hoQAxAAAAAAAAAAAAAAAAAAAAAAAAAAAAAAAAAAAAAAAAAAAAAAAAAAAAAAAAAAAAAAAAAAAAAAAAAAAAAAAAAAAAAAAAAAAAAAAAAAAAAAAAAAAAAAAAAAAAAAAAAACengAVoKIAtKChAP+goQD/oKEA/6ChAP+goQD/oKEA/6ChAMsAAAAAn58AOKChAL6goQD9oKEA/6ChAP+goQD/oKEA/6ChAP+goQD/oKEA/6ChAP+goABWAAAAAJ+hAICgoQD/oKEA3JylAB8AAAAAn6EAiKChAP+goQD/oKEA/6ChAP+goQD/oKEA/6ChAP+goQD/oKEA/6ChAP+goAC6AAAAAAAAAAAAAAAAAAAAAAAAAAAAAAAAAAAAAAAAAAAAAAAAAAAAAAAAAAAAAAAAAAAAAAAAAAAAAAAAAAAAAAAAAAAAAAAAAAAAAAAAAAAAAAAAAAAAAAAAAAAAAAAAAAAAAICAAAKiowCZoqMA/6KjAP+iowD/oqMA/6KjAP+hpABiAAAAAKKkAKKiowD/oqMA/6KjAP+iowD/oqMA/6KjAP+iowD/oqMA/6KjAP+ipACJAAAAAKGhAC6iowD3oqMA/6KjAP+howDaoqIAFr+/AASjowDBoqMA/6KjAP+iowD/oqMA/6KjAP+iowD/oqMA/6KjAP+iowD/oqIAawAAAAAAAAAAAAAAAAAAAAAAAAAAAAAAAAAAAAAAAAAAAAAAAAAAAAAAAAAAAAAAAAAAAAAAAAAAAAAAAAAAAAAAAAAAAAAAAAAAAAAAAAAAAAAAAAAAAAAAAAAAAAAAAAAAAAAAAAAA//8AAaOlALKjpQD/o6UA/6OlAP+jpQCs//8AAaWlACWjpQD5o6UA/6OlAP+jpQD/o6UA/6OlAP+jpQD/o6UA/6OlAPGipABoAAAAAKOjABmjpQDao6UA/6OlAP+jpQD/o6UA/6KlAL6qqgADo6MAGaOlAOmjpQD/o6UA/6OlAP+jpQD/o6UA/6OlAP+jpQD/o6UA/6SkAC0AAAAAAAAAAAAAAAAAAAAAAAAAAAAAAAAAAAAAAAAAAAAAAAAAAAAAAAAAAAAAAAAAAAAAAAAAAAAAAAAAAAAAAAAAAAAAAAAAAAAAAAAAAAAAAAAAAAAAAAAAAAAAAAAAAAAAAAAAAAAAAAClpQARpqYA5KSmAKmkpgBfv78ABJmZAAWlpwDHpaYA/6WmAP+lpgD/paYA/6WmAP+lpgD/paYA8KWmAI2qqgAYAAAAAKSkADulpwDepaYA/6WmAP+lpgD/paYA/6WmAP+lpgD/pKYAhAAAAACjpwBOpaYA/6WmAP+lpgD/paYA/6WmAP+lpgD/paYA/6WmAPi/vwAEAAAAAAAAAAAAAAAAAAAAAAAAAAAAAAAAAAAAAAAAAAAAAAAAAAAAAAAAAAAAAAAAAAAAAAAAAAAAAAAAAAAAAAAAAAAAAAAAAAAAAAAAAAAAAAAAAAAAAAAAAAAAAAAAAAAAAAAAAAAAAAAAAAAAAKqqABUAAAAAAAAAAAAAAACiqgAhpagAW6WnAGOnqQB/pqgAj6eoAJmlqQCLpagAUrOzAAoAAAAAoqoAIaaoAKSmqAD9pqgA/6aoAP+mqAD/pqgA/6aoAP+mqAD/pqgA/6aoAP6lqQBHAAAAAKapAKumqAD/pqgA/6aoAP+mqAD/pqgA/6aoAP+mqADOAAAAAAAAAAAAAAAAAAAAAAAAAAAAAAAAAAAAAAAAAAAAAAAAAAAAAAAAAAAAAAAAAAAAAAAAAAAAAAAAAAAAAAAAAAAAAAAAAAAAAAAAAAAAAAAAAAAAAAAAAAAAAAAAAAAAAAAAAAAAAAAAAAAAAAAAAAAAAAAAAAAAAAAAAAAAAAAAAAAAAAAAAAAAAAAAAAAAAAAAAAAAAAAAAAAAALOzAAqmqgBFqKkApKiqAPuoqgD/qKoA/6iqAP+oqgD/qKoA/6iqAP+oqgD/qKoA/6iqAP+oqgD/qKoA4aqqAAmlrQAiqKoA+KiqAP+oqgD/qKoA/6iqAP+oqgD/p6sAqQAAAAAAAAAAAAAAAAAAAAAAAAAAAAAAAAAAAAAAAAAAAAAAAAAAAAAAAAAAAAAAAAAAAAAAAAAAAAAAAAAAAAAAAAAAAAAAAAAAAAAAAAAAAAAAAAAAAAAAAAAAAAAAAAAAAAAAAAAAAAAAAAAAAAAAAAAAAAAAAAAAAACtrQAfqawAkamsANaprAD/qawA/qmrAOWprQDDqa0AwKmsANCprAD5qawA/6msAP+prAD/qawA/6msAP+prAD/qawA/6msAP+prAD/qawA/6msAP+prAD/qawA/6msAP+prQB8AAAAAKmtAHaprAD/qawA/6msAP+prAD/qawA/6mrAJIAAAAAAAAAAAAAAAAAAAAAAAAAAAAAAAAAAAAAAAAAAAAAAAAAAAAAAAAAAAAAAAAAAAAAAAAAAAAAAAAAAAAAAAAAAAAAAAAAAAAAAAAAAAAAAAAAAAAAAAAAAAAAAAAAAAAAAAAAAAAAAACqrwAwq6wArautAMasrABTrKwAYqutAP+rrQD/q60A/6utAP+rrQD/q60A/6utAP+rrQD/q60A/6utAP+rrQD/q60A/6utAP+rrQD/q60A/6utAP+rrQD/q60A/6utAP+rrQD/q60A/6utAP+rrQD/q60A9KqqACr//wABq6wAl6utAP+rrQD/q60A/6utAP+qrAB7AAAAAAAAAAAAAAAAAAAAAAAAAAAAAAAAAAAAAAAAAAAAAAAAAAAAAAAAAAAAAAAAAAAAAAAAAAAAAAAAAAAAAAAAAAAAAAAAAAAAAAAAAAAAAAAAAAAAAAAAAAAAAAAAAAAAAAAAAACvrwAgrK8A86yvAP+srwD/rK8A+q2vAO6srwD/rK8A/6yvAP+srwD/rK8A/6yvAP+srwD/rK8A/6yvAP+srwD/rK8A/6yvAP+srwD/rK8A/6yvAP+srwD/rK8A/6yvAP+srwD/rK8A/6yvAP+srwD/rK8A/6yvAP+srwDara0AHP//AAGssACHrK8A/qyvAP+srwD/q7AAYQAAAAAAAAAAAAAAAAAAAAAAAAAAAAAAAAAAAAAAAAAAAAAAAAAAAAAAAAAAAAAAAAAAAAAAAAAAAAAAAAAAAAAAAAAAAAAAAAAAAAAAAAAAAAAAAAAAAAAAAAAAAAAAAAAAAAAAAAAArrEAoa6xAP+usQD/rrEA/66xAP+usQD/rrEA/66xAP+usQD/rrEA/66xAP+usQD/rrEA/66xAP+usQD/rrEA/66xAP+usQD/rrEA/66xAP+usQD/rrEA/66xAP+usQD/rrEA/66xAP+usQD/rrEA/66xAP+usQD/rrEA/66wAOCxsQAkAAAAAK6yAD+usADTrrEA/66xAMqusQDKrrEAo6+yAFMAAAAAAAAAAAAAAAAAAAAAAAAAAAAAAAAAAAAAAAAAAAAAAAAAAAAAAAAAAAAAAAAAAAAAAAAAAAAAAAAAAAAAAAAAAAAAAAAAAAAAAAAAAAAAAAAAAAAA//8AAa+zAPGvswD/r7MA/6+zAP+vswD/r7MA/6+zAP+vswD/r7MA/6+zAP+vswD/r7MA/6+zAP+vswD/r7MA/6+zAP+vswD/r7MA/6+zAP+vswD/r7MA/6+zAP+vswD/r7MA/6+zAP+vswD/r7MA/6+zAP+vswD/r7MA/6+zAP+vswD/r7MA7q6zAGiAgAACs7MACq+zAOmvswD/r7MA/6+zAP+vswD/rrMAawAAAAAAAAAAAAAAAAAAAAAAAAAAAAAAAAAAAAAAAAAAAAAAAAAAAAAAAAAAAAAAAAAAAAAAAAAAAAAAAAAAAAAAAAAAAAAAAAAAAAAAAAAAAAAAAL+/AAixtAD/sbQA/7G0AP+xtAD/sbQA/7G0AP+xtAD/sbQA/7G0AP+xtAD/sbQA/7G0AP+xtAD/sbQA/7G0AP+xtAD/sbQA/7G0AP+xtAD/sbQA/7G0AP+xtAD/sbQA/7G0AP+xtAD/sbQA/7G0AP+xtAD/sbQA/7G0AP+xtAD/sbQA/7G0AP+xtAD/srQA1rKzAIextAD8sbQA/7G0AP+xtAD/sbQA/7G0APq1tQAfAAAAAAAAAAAAAAAAAAAAAAAAAAAAAAAAAAAAAAAAAAAAAAAAAAAAAAAAAAAAAAAAAAAAAAAAAAAAAAAAAAAAAAAAAAAAAAAAAAAAAAAAAAAAAAAAsrYA57K2AP+ytgD/srYA/7K2AP+ytgD/srYA/7K2AP+ytgD/srYA/7K2AP+ytgD/srYA/7K2AP+ytgD/srYA/7K2AP+ytgD/srYA/7K2AP+ytgD/srYA/7K2AP+ytgD/srYA/7K2AP+ytgD/srYA/7K2AP+ytgD/srYA/7K2AP+ytgD/srYA/7K2AP+ytgD/srYA/7K2AP+ytgD/srYA/7K2AP+ytgD/srUAVgAAAAAAAAAAAAAAAAAAAAAAAAAAAAAAAAAAAAAAAAAAAAAAAAAAAAAAAAAAAAAAAAAAAAAAAAAAAAAAAAAAAAAAAAAAAAAAAKqqAAa2ugA7tLgAd7S4AOO0uAD/tLgA/7S4AP+0uAD/tLgA/7S4AP+0uAD/tLgA/7S4AP+0uAD/tLgA/7S4AP+0uAD/tLgA/7S4AP+0uAD/tLgA/7S4AP+0uAD/tLgA/7S4AP+0uAD/tLgA/7S4AP+0uAD/tLgA/7S4AP+0uAD/tLgA/7S4AP+0uAD/tLgA/7S4AP+0uAD/tLgA/7S4AP+0uAD/tLgA/7S4AP+0uAD/tLgA/7S3AFgAAAAAAAAAAAAAAAAAAAAAAAAAAAAAAAAAAAAAAAAAAAAAAAAAAAAAAAAAAAAAAAAAAAAAAAAAAAAAAAAAAAAAt7sAPLW5AKG1ugD1tboA/7W6AP+1ugD/tboA/7W6AP+1ugD/tboA/7W6AP+1ugD/tboA/7W6AP+1ugD/tboA/7W6AP+1ugD/tboA/7W6AP+1ugD/tboA/7W6APe1ugDitboA0La6AL+2ugCxtboAprW6AJi2ugCItroAiLS6AIy2uwCZtboAn7W6ALq0ugDztboA/7W6AP+1ugD/tboA/7W6AP+1ugD/tboA/7W6AP+1ugD/tboA/7W6AP61vAAmAAAAAAAAAAAAAAAAAAAAAAAAAAAAAAAAAAAAAAAAAAAAAAAAAAAAAAAAAAAAAAAAAAAAALi+ACu2ugBGt7sApLe7AP+3uwD0t7sAsbe6AIa3uwD7t7sA/7a6AIm3uwC4trsA2ra7ALO3vADQt7sA/7e7AP+3uwD/t7sA/7e7AP+3uwD/uLsAz7e7AIe4uwBWtbsALba2AA4AAAAAAAAAAAAAAAAAAAAAAAAAAKrGAAm0tAARtLQAEbS0ABG0tAARtLQAEaqqAAYAAAAAuL4AK7e7AP+3uwD/t7sA/7e7AP+3uwD/t7sA/7e7AP+3uwD/t7sA/7e7AP+3vAC9AAAAAAAAAAAAAAAAAAAAAAAAAAAAAAAAAAAAAAAAAAAAAAAAAAAAAAAAAAAAAAAAAAAAALe9AIC4vQD6uL0A/7i9APu4vQCEt70AWbu7AB64vQCeuL0A/7i9ALEAAAAAAAAAAAAAAAAAAAAAub4AmLi9AP+4vQD/uL0A/7i9AP+4vADmub0ATQAAAAC2vAAqub4AZrm8AIa4vQCiuL0Auri9AM63vQDduL0A7ri9APu4vQD/uL0A/7i9AP+4vQD/uL0A/7i9AP+4vQD/uL0A7ri9APG4vQD/uL0A/7i9AP+4vQD/uL0A/7i9AP+4vQD/uL0A/7i9AP+4vQD/uL0A9bu7ACkAAAAAAAAAAAAAAAAAAAAAAAAAAAAAAAAAAAAAAAAAAAAAAAAAAAAAAAAAALq/AGi6vwDkuL4AK7rAAJG6vwD+usAAybm/AOe6vwD7ur8A/7rAAOW/vwAUAAAAAAAAAAAAAAAAAAAAALrAAIG6vwD/ur8A/7q/AP+6vwD/usAAkbvAAGm6vwDaur8A/7q/AP+6vwD/ur8A/7q/AP+6vwD/ur8A/7q/AP+6vwD/ur8A/7q/AP+6vwD/ur8A/7q/AP+6vwD/ur8A/7q/AP+6vwD/ur8A/7q/AP+6vwD/ur8A/7q/AP+6vwD/ur8A07q/AKq5vwCEur8Azrq/AP+6vwC2AAAAAAAAAAAAAAAAAAAAAAAAAAAAAAAAAAAAAAAAAAAAAAAAv78ACLvBAIO7wQDRusIAXLrCAEP//wABusEAnLvBAP+5vwAovMEAZ7vBAPu7wQCktMMAEQAAAAAAAAAAAAAAAAAAAAC8wABuu8EA/7vBAP+7wQD/u8EA/7vBAP+7wQD/u8EA/7vBAP+7wQD/u8EA/7vBAP+7wQD/u8EA/7vBAP+7wQD/u8EA/7vBAP+7wQD/u8EA/7vBAP+7wQD/u8EA/7vBAP+7wQD/u8EA/7vBAP+7wQD/u8EA/7vBAP+7wQD/u8EA/7zBAIwAAAAAAAAAALbCABW7wQDpu8EA/re/ACAAAAAAAAAAAAAAAAAAAAAAAAAAAAAAAAAAAAAAAAAAAL+/ACy9wgD8vMIAgr3CAPW9wgDRu7sAD7zDAES9wgD/vcIAZAAAAAC+wgBLvcIA9L3CAP+6xAAaAAAAAAAAAAAAAAAAvMIAXL3CAP+9wgD/vcIA/73CAP+9wgD/vcIA/73CAP+9wgD/vcIA/73CAP+9wgD/vcIA/73CAP+9wgD/vcIA/73CAP+9wgD/vcIA/73CAP+9wgD/vcIA/73CAP+9wgD/vcIA/73CAP+9wgD/vcIA/73CAP+9wgD/vcIA/73CAP++wwCcAAAAAAAAAAAAAAAAvcMAh73CAP+8wgBUAAAAAAAAAAAAAAAAAAAAAAAAAAAAAAAAAAAAAAAAAAAAAAAAvsQAeb7EAP+9xQCzvsQA/b/FAFi+xADtvsQA2L7EAP+/xAC+v78AFL3DAIC+xAC/AAAAAAAAAAAAAAAAAAAAALzEAEW+xAD/vsQA/77EAP++xAD/vsQA/77EAP++xAD/vsQA/77EAP++xAD/vsQA/77EAP++xAD/vsQA/77EAP++xAD/vsQA/77EAP++xAD/vsQA/77EAP++xAD/vsQA/77EAP++xAD/vsQA/77EAP++xAD/vsQA/77EAP++xAD/vsQArAAAAAAAAAAAAAAAAL7EAEq+xAD/v8UAewAAAAAAAAAAAAAAAAAAAAAAAAAAAAAAAAAAAAAAAAAAAAAAAP//AAHBxwCswMYA3sHGAJfAxgDewMYA/8DGAOTAxgCpwMYA38HGAC3AxgDkvsYAQwAAAAAAAAAAAAAAAAAAAAC/xgAowMYA/8DGAP/AxgD/wMYA/8DGAP/AxgD/wMYA/8DGAP/AxgD/wMYA+MDGAOXAxgD5wMYA/8DGAP/AxgD/wMYA/8DGAP/AxgD/wMYA/8DGAN7AxgDNwMYA9sDGAP/AxgD/wMYA/8DGAP/AxgD/wMYA/8DGAP/AxgD/wMYA/8DGALcAAAAAAAAAAAAAAADAxQA5wMYA/8HGALDBxQA+xMQAGgAAAAAAAAAAAAAAAAAAAAAAAAAAAAAAAAAAAAAAAAAAv78ADMHIAMfCyAD/wskAxcPJAF7CyADfwsgA3sPHAE3ByABzwskApAAAAAAAAAAAAAAAAAAAAAAAAAAAxsYACcLIAP7CyAD/wsgA/8LIAP/CyAD/wsgA/8LIAP/CyADuwsgAWP//AAIAAAAAv78ABMLIAE/CyADtwsgA/8LIAP/CyAD/wsgA/sHJAF8AAAAAAAAAAL+/AAzByQBjwsgA9sLIAP/CyAD/wsgA/8LIAP/CyAD/wsgA/8LIAP/CyADBAAAAAL+/AAjCyAC1wsgA/8LIAP/CyAD/wsgA/8LIAPDMzAAFAAAAAAAAAAAAAAAAAAAAAAAAAAAAAAAAAAAAAAAAAAC50QALxMkAZ7bbAAcAAAAAu8wAD8PJAKHDyQD9w8kA9L/MABQAAAAAAAAAAAAAAAAAAAAAAAAAAAAAAADDygDlw8kA/8PJAP/DyQD/w8kA/8PJAP/DyQD+w8sARAAAAAAAAAAAAAAAAAAAAAAAAAAAxMkANMPJAPvDyQD/w8kA/8PJAJwAAAAAAAAAAAAAAAAAAAAAAAAAAMPKAEjDyQD4w8kA/8PJAP/DyQD/w8kA/8PJAP/DyQD/wskAtQAAAADEygBWw8kA/8PIAG/DyQAvw8sAIsLKAEPDyQD/wcgAJQAAAAAAAAAAAAAAAAAAAAAAAAAAAAAAAAAAAAAAAAAAAAAAAAAAAAAAAAAAAAAAAAAAAAAAAAAAxsYAG8PJACYAAAAAAAAAAAAAAAAAAAAAAAAAAAAAAAAAAAAAxMsAxMXLAP/FywD/xcsA/8XLAP/FywD/xcsAygAAAAAAAAAAAAAAAAAAAAAAAAAAAAAAAAAAAADFywDXxcsA/8XLAP/GygBDAAAAAAAAAAAAAAAAAAAAAAAAAAAAAAAAxcsAgMXLAP/FywD/xcsA/8XLAP/FywD/xcsA/8XLAJ4AAAAAxcoAMMXLAP/CyAAqAAAAAAAAAADIyAAOxcsA/8XNAEIAAAAAAAAAAAAAAAAAAAAAAAAAAAAAAAAAAAAAAAAAAAAAAAAAAAAAAAAAAAAAAAAAAAAAAAAAAAAAAAAAAAAAAAAAAAAAAAAAAAAAAAAAAAAAAAAAAAAAAAAAAMfNAKPGzQD/xs0A/8bNAP/GzQD/xs0A/8fNAL4AAAAAAAAAAAAAAAAAAAAAAAAAAAAAAAAAAAAAxs0A3MbNAP/GzQD/xNAAKwAAAAAAAAAAAAAAAAAAAAAAAAAAAAAAAMbNAFHGzQD/xs0A/8bNAP/GzQD/xs0A/8bNAP/GzgCGAAAAALbbAAfGzQD6xswAdMbNAMLGzQCQxc4AlsbNAPHHzABfAAAAAAAAAAAAAAAAAAAAAAAAAAAAAAAAAAAAAAAAAAAAAAAAAAAAAAAAAAAAAAAAAAAAAAAAAAAAAAAAAAAAAAAAAAAAAAAAAAAAAAAAAAAAAAAAAAAAAAAAAADIzgB4yM8A/8jPAP/IzwD/yM8A/8jPAP/IzwDsttsABwAAAAAAAAAAAAAAAAAAAAAAAAAAydAATMjPAP/IzwD/yM8A/8fPAIUAAAAAAAAAAAAAAAAAAAAAAAAAAAAAAADIzgBYyM8A/8jPAP/IzwD/yM8A/8jPAP/IzwD/x88AWwAAAAAAAAAAyNAA18jPAHTIzwD/yM8A7MjPAPvJzwDAx88AoAAAAAAAAAAAAAAAAAAAAAAAAAAAAAAAAAAAAAAAAAAAAAAAAAAAAAAAAAAAAAAAAAAAAAAAAAAAAAAAAAAAAAAAAAAAAAAAAAAAAAAAAAAAAAAAAAAAAAAAAAAAys8AOsnQAP/J0AD/ydAA/8nQAP/J0AD/ydAA/8nPAIAAAAAAAAAAAAAAAAAAAAAAydAAR8nQAPbJ0AD/ydAA/8nQAP/J0AD/ydAApMzMABQAAAAAAAAAAAAAAADG0AAbydAAzsnQAP/J0AD/ydAA/8nQAP/J0AD/ydAA/8bNACQAAAAAAAAAAMnQALPJ0QBjydAA/snQAI3K0ACUytAAgcnQAPjI0QAcAAAAAAAAAAAAAAAAAAAAAAAAAAAAAAAAAAAAAAAAAAAAAAAAAAAAAAAAAAAAAAAAAAAAAAAAAAAAAAAAAAAAAAAAAAAAAAAAAAAAAAAAAAAAAAAAAAAAAP//AAHM0gDfy9IA/8vSAP/L0gD/y9IA/8vSAP/L0gD+zNIAmsvRAIDL0wChy9IA28vSAP/L0gD/y9IA/8vSAP/L0gD/y9IA/8vSAP/L0gD3ytIAvcvSAKrL0gC6y9IA+cvSAP/L0gD/y9IA/8vSAP/L0gD/y9IA/8vSAOgAAAAAAAAAAAAAAADL0gCYy9IA1MvSAPzL0gDvy9IA+8vSAP/L0QDgytAAKwAAAAAAAAAAAAAAAAAAAAAAAAAAAAAAAAAAAAAAAAAAAAAAAAAAAAAAAAAAAAAAAAAAAAAAAAAAAAAAAAAAAAAAAAAAAAAAAAAAAAAAAAAAAAAAAAAAAAAAAAAAzNQAgszUAP/M1AD/zNQA/8zUAP/M1AD/zNQA/8zUAP/M1AD/zNQA/8zUAP/M1AD/zNQA/8zUAP/M1AD/zNQA/8zUAP/M1AD/zNQA/8zUAP/M1AD/zNQA/8zUAP/M1AD/zNQA/8zUAP/M1AD/zNQA/8zUAP/M1QCpAAAAAAAAAAAAAAAAzdUAJM3VAGbM1ABfzdMAUs3VAD3J1wAmqqoAAwAAAAAAAAAAAAAAAAAAAAAAAAAAAAAAAAAAAAAAAAAAAAAAAAAAAAAAAAAAAAAAAAAAAAAAAAAAAAAAAAAAAAAAAAAAAAAAAAAAAAAAAAAAAAAAAAAAAAAAAAAAAAAAAM3VACTO1gD+ztYA/87WAP/O1gD/ztYA/87WAP/O1gD/ztYA/87WAP/O1gD/ztYA/87WAP/O1gD/ztYA/87WAP/O1gD/ztYA/87WAP/O1gD/ztYA/87WAP/O1gD/ztYA/87WAP/O1gD/ztYA/87WAP/O1gD/0NcARgAAAAAAAAAAAAAAAAAAAAAAAAAAAAAAAAAAAAAAAAAAAAAAAAAAAAAAAAAAAAAAAAAAAAAAAAAAAAAAAAAAAAAAAAAAAAAAAAAAAAAAAAAAAAAAAAAAAAAAAAAAAAAAAAAAAAAAAAAAAAAAAAAAAAAAAAAAAAAAAAAAAAAAAAAAAAAAAAAAAAAAAAAAz9cAvs/XAP/P1wD/z9cA/8/XAP/P1wD/z9cA/8/XAP/P1wD/z9cA/8/XAP/P1wD/z9cA/8/XAP/P1wD/z9cA/8/XAP/P1wD/z9cA/8/XAP/P1wD/z9cA/8/XAP/P1wD/z9cA/8/XAP/P1wD/z9cA0///AAEAAAAAAAAAAAAAAAAAAAAAAAAAAAAAAAAAAAAAAAAAAAAAAAAAAAAAAAAAAAAAAAAAAAAAAAAAAAAAAAAAAAAAAAAAAAAAAAAAAAAAAAAAAAAAAAAAAAAAAAAAAAAAAAAAAAAAAAAAAAAAAAAAAAAAAAAAAAAAAAAAAAAAAAAAAAAAAAAAAAAAAAAAANDbADHR2QD50dkA/9HZAP/R2QD/0dkA/9HZAP/R2QD/0dkA/9HZAP/R2QD/0dkA/9HZAP/R2QD/0dkA/9HZAP/R2QD/0dkA/9HZAP/R2QD/0dkA/9HZAP/R2QD/0dkA/9HZAP/R2QD/0dkA/tDYAEEAAAAAAAAAAAAAAAAAAAAAAAAAAAAAAAAAAAAAAAAAAAAAAAAAAAAAAAAAAAAAAAAAAAAAAAAAAAAAAAAAAAAAAAAAAAAAAAAAAAAAAAAAAAAAAAAAAAAAAAAAAAAAAAAAAAAAAAAAAAAAAAAAAAAAAAAAAAAAAAAAAAAAAAAAAAAAAAAAAAAAAAAAAAAAAAAAAAAA0dsAZNLbAP/S2wD/0tsA/9LbAP/S2wD/0tsA/9LbAP/S2wD/0tsA/9LbAP/S2wD/0tsA/9LbAP/S2wD/0tsA/9LbAP/S2wD/0tsA/9LbAP/S2wD/0tsA/9LbAP/S2wD/0tsA/9LcAJgAAAAAAAAAAAAAAAAAAAAAAAAAAAAAAAAAAAAAAAAAAAAAAAAAAAAAAAAAAAAAAAAAAAAAAAAAAAAAAAAAAAAAAAAAAAAAAAAAAAAAAAAAAAAAAAAAAAAAAAAAAAAAAAAAAAAAAAAAAAAAAAAAAAAAAAAAAAAAAAAAAAAAAAAAAAAAAAAAAAAAAAAAAAAAAAAAAAAAAAAAAAAAAADU3QCN1NwA/9TcAP/U3AD/1NwA/9TcAP/U3AD/1NwA/9TcAP/U3AD/1NwA/9TcAP/U3AD/1NwA/9TcAP/U3AD/1NwA/9TcAP/U3AD/1NwA/9TcAP/U3AD/1NwA/9TcAN3Y2AANAAAAAAAAAAAAAAAAAAAAAAAAAAAAAAAAAAAAAAAAAAAAAAAAAAAAAAAAAAAAAAAAAAAAAAAAAAAAAAAAAAAAAAAAAAAAAAAAAAAAAAAAAAAAAAAAAAAAAAAAAAAAAAAAAAAAAAAAAAAAAAAAAAAAAAAAAAAAAAAAAAAAAAAAAAAAAAAAAAAAAAAAAAAAAAAAAAAAAAAAAAAAAAAA//8AAtXdAK7V3gD/1d4A/9XeAP/V3gD/1d4A/9XeAP/V3gD/1d4A/9XeAP/V3gD/1d4A/9XeAP/V3gD/1d4A/9XeAP/V3gD/1d4A/9XeAP/V3gD/1d4A/9XeAPHX3AAzAAAAAAAAAAAAAAAAAAAAAAAAAAAAAAAAAAAAAAAAAAAAAAAAAAAAAAAAAAAAAAAAAAAAAAAAAAAAAAAAAAAAAAAAAAAAAAAAAAAAAAAAAAAAAAAAAAAAAAAAAAAAAAAAAAAAAAAAAAAAAAAAAAAAAAAAAAAAAAAAAAAAAAAAAAAAAAAAAAAAAAAAAAAAAAAAAAAAAAAAAAAAAAAAAAAAAAAAAADM5gAK1+AAtNfgAP/X4AD/1+AA/9fgAP/X4AD/1+AA/9fgAP/X4AD/1+AA/9fgAP/X4AD/1+AA/9fgAP/X4AD/1+AA/9fgAP/X4AD/1+AA/9fgAN/V3wAwAAAAAAAAAAAAAAAAAAAAAAAAAAAAAAAAAAAAAAAAAAAAAAAAAAAAAAAAAAAAAAAAAAAAAAAAAAAAAAAAAAAAAAAAAAAAAAAAAAAAAAAAAAAAAAAAAAAAAAAAAAAAAAAAAAAAAAAAAAAAAAAAAAAAAAAAAAAAAAAAAAAAAAAAAAAAAAAAAAAAAAAAAAAAAAAAAAAAAAAAAAAAAAAAAAAAAAAAAAAAAAAAAAAAAP//AAPY4QB32OIA+NjiAP/Y4gD/2OIA/9jiAP/Y4gD/2OIA/9jiAP/Y4gD/2OIA/9jiAP/Y4gD/2OIA/9jiAP/Y4gD/2OIA/9fiALvZ5gAUAAAAAAAAAAAAAAAAAAAAAAAAAAAAAAAAAAAAAAAAAAAAAAAAAAAAAAAAAAAAAAAAAAAAAAAAAAAAAAAAAAAAAAAAAAAAAAAAAAAAAAAAAAAAAAAAAAAAAAAAAAAAAAAAAAAAAAAAAAAAAAAAAAAAAAAAAAAAAAAAAAAAAAAAAAAAAAAAAAAAAAAAAAAAAAAAAAAAAAAAAAAAAAAAAAAAAAAAAAAAAAAAAAAAAAAAAAAAAAAAAAAAANfjAC3a4wDK2uMA/9rjAP/a4wD/2uMA/9rjAP/a4wD/2uMA/9rjAP/a4wD/2uMA/9rjAP/a4wD22eMAo9njAEr//wABAAAAAAAAAAAAAAAAAAAAAAAAAAAAAAAAAAAAAAAAAAAAAAAAAAAAAAAAAAAAAAAAAAAAAAAAAAAAAAAAAAAAAAAAAAAAAAAAAAAAAAAAAAAAAAAAAAAAAAAAAAAAAAAAAAAAAAAAAAAAAAAAAAAAAAAAAAAAAAAAAAAAAAAAAAAAAAAAAAAAAAAAAAAAAAAAAAAAAAAAAAAAAAAAAAAAAAAAAAAAAAAAAAAAAAAAAAAAAAAAAAAAAAAAAAAAAAAA//8AA9vmAF3a5QC82+UA+9vlAP/b5QD/2+UA/9vlAP/b5QD/2+YA3NzmAJjb5gBc398AEAAAAAAAAAAAAAAAAAAAAAAAAAAAAAAAAAAAAAAAAAAAAAAAAAAAAAAAAAAAAAAAAAAAAAAAAAAAAAAAAAAAAAAAAAAAAAAAAAAAAAAAAAAAAAAAAAAAAAAAAAAAAAAAAAAAAAAAAAAAAAAAAAAAAAAAAAAAAAAAAAAAAAAAAAAAAAAAAAAAAAAAAAAAAAAAAAAAAAAAAAAAAAAAAAAAAAAAAAAAAAAAAAAAAAAAAAAAAAAAAAAAAAAAAAAAAAAAAAAAAAAAAAAAAAAAAAAAAAAAAAAAAAAAAN/fABDa5gA+3eUARN3lAETd5gA02OIAGgAAAAAAAAAAAAAAAAAAAAAAAAAAAAAAAAAAAAAAAAAAAAAAAAAAAAAAAAAAAAAAAAAAAAAAAAAAAAAAAAAAAAAAAAAAAAAAAAAAAAAAAAAAAAAAAAAAAAAAAAAAAAAAAAAAAAAAAAAAAAAAAAAAAAAAAAAAAAAAAAAAAAAAAAAAAAAAAAAAAAAAAAAAAAAAAAAAAAAAAAAAAAAAAAAAAAAAAAAAAAAAAAAAAAAAAAAAAAAAAAAAAAAAAAAAAAAAAAAAAAAAAAAAAAAAAAAAAAAAAAAAAAAAAAAAAAAAAAAAAAAAAAAAAAAAAAAAAAAAAAAAAAAAAAAAAAAAAAAAAAAAAAAAAAAAAAAAAAAAAAAAAAAAAAAAAAAAAAAAAAAAAAAAAAAAAAAAAAAAAAAAAAAAAAAAAAAAAAAAAAAAAAAAAAAAAAAAAAAAAAAAAAAAAAAAAAAAAAAAAAAAAAAAAAAAAAAAAAAAAAAAAAAAAAAAAAAAAAAAAAAAAAAAAAAAAAAAAAAAAAAAAAAAAAAAAAAAAAAAAAAAAAAAAAAAAAAAAAAAAAAAAAAAAAAAAAAAAAAAAAAAAAAAAAAAAAAAAAAAAAAAAAAAAAAAAAAAAAAAAAAAAAAAAAAAAAAAAAAAAAAAAAAAAAAAAAAAAAAAAAAAAAAAAAAAAAAAAAAAAAAAAAAAAAAAAAAAAAAAAAAAAAAAAAAAAAAAAAAAAAAAAAAAAAAAAAAAAAAAAAAAAAAAAAAAAAAAAAAAAAAAAAAAAAAAAAAAAAAAAAAAAAAAAAAAAAAAAAAAAAAAAAAAAAAAAAAAAAAAAAAAAAAAAAAAAAAAAAAAAAAAAAAAAAAAAAAAAAAAAAAAAAAAAAAAAAAAAAAAAAAAAAAAAAAAAAAAAAAAAAAAAAAAAAAAAAAAAAAAAAAAAAAAAAAAAAAAAAAAAAAAAAAAAAAAAAAAAAAAAAAAAAAAAAAAAAAAAAAAAAAAAAAAAAAAAAAAAAAAAAAAAAAAAAAAAAAAAAAAAAAAAAAAAAAAAAAAAAAAAAAAAAAAAAAAAAAAAAAAAAAAAAAAAAAAAAAAAAAAAAAAAAAAAAAAAAAAAAAAAAAAAAAAAAAAAAAAAAAAAAAAAAAAAAAAAAAAAAAAAAAAAAAAAAAAAAAAAAAAAAAAAAAAAAAAAAAAAAAAAAAAAAAAAAAAAAAAAAAAAAAAAAAAAAAAAAAAAAAAAAAAAAAAAAAAAAAAAAAAAAAAAAAAAAAAAAAAAAAAAAAAAAAAAAAAAAAAAAAAAAAAAAAAAAAAAAAAAAAAAAAAAAAAAAAAAAAAAAAAAAAAAAAAAAAAAAAAAAAAAAAAAAAAAAAAAAAAAAAAAAAAAAAAAAAAAAAAAAAAAAAAAAAAAAAAAAAAAAAAAAAAAAAAAAAAAAAAAAAAAAAAAAAAAAAAAAAAAAAAAAAAAAAAAAAAAAAAAAAAAAAAAAAAAAAAAAAAAAAAAAAAAAAAAAAAAAAAAAAAAAAAAAAAAAAAAAAAAAAAAAAAAAAAAAAAAAAAAAAAAAAAAAAAAAAAAAAAAAAAAAAAAAAAAAAAAAAAAAAAAAAAAAAAAAAAAAAAAAAAAAAAAAAAAAAAAAAAAAAAAAAAAAAAAAAAAAAAAAAAAAAAAAAAAAAAAAAAAAAAAAAAAAAAAAAAAAAAAAAAAAAAAAAAAAAAAAAAAAAAAAAAAAAAAAAAAAAAAAAAAAAAAAAAAAAAAAAAAAAAAAAAAAAAAAAAAAAAAAAAAAAAAAAAAAAAAAAAAAAAAAAAAAAAAAAAAAAAAAAAAAAAAAAAAAAAAAAAAAAAAAAAAAAAAAAAAAAAAAAAAAAAAAAAAAAAAAAAAAAAAAAAAAAAAAAAAAAAAAAAAAAAAAAAAAAAAAAAAAAAAAAAAAAAAAAAAAAAAAAAAAAAAAAAAAAAAAAAAAAAAAAAAAAAAAAAAAAAAAAAAAAAAAAAAAAAAAAAAAAAAAAAAAAAAAAAAAAAAAAAAAAAAAAAAAAAAAAAAAAAAAAAAAAAAAAAAAAAAAAAAAAAAAAAAAAAAAAAAAAAAAAAAAAAAAAAAAAAAAAAAAAAAAAAAAAAAAAAAAAAAAAAAAAAAAAAAAAAAAAAAAAAAAAAAAAAAAAAAAAAAAAAAAAAAAAAAAAAAAAAAAAAAAAAAAAAAAAAAAAAAAAAAAAAAAAAAAAAAAAAAAAAAAAAAAAAAAAAAAAAAAAAAAAAAAAAAAAAAAAAAAAAAAAAAAAAAAAAAAAAAAAAAAAAAAAAAAAAAAAAAAAAAAAAAAAAAAAAAAAAAAAAAAAAAAAAAAAAAAAAAAAAAAAAAAAAAAAAAAAAAAAAAAAAAAAAAAAAAAAAAAAAAAAAAAAAAAAAAAAAAAAAAAAAAAAAAAAAAAAAAAAAAAAAAAAAAAAAAAAAAAAAAAAAAAAAAAAAAAAAAAAAAAAAAAAAAAAAAAAAAAAAAAAAAAAAAAAAAAAAAAAAAAAAAAAAAAAAAAAAAAAAAAAAAAAAAAAAAAAAAAAAAAAAAAAAAAAAAAAAAAAAAAAAAAAAAAAAAAAAAAAAAAAAAAAAAAAAAAAAAAAAAAAAAAAAAAAAAAAAAAAAAAAAAAAAAAAAAAAAAAAAAAAAAAAAAAAAAAAAAAAAAAAAAAAAAAAAAAAAAAAAAAAAAAAAAAAAAAAAAAAAAAAAAAAAAAAAAAAAAAAAAAAAAAAAAAAAAAAAAAAAAAAAAAAAAAAAAAAAAAAAAAAAAAAAAAAAAAAAAAAAAAAAAAAAAAAAAAAAAAAAAAAAAAAAAAAAAAAAAAAAAAAAAAAAAAAAAAAAAAAAAAAAAAAAAAAAAAAAAAAAAAAAAAAAAAAAAAAAAAAAAAAAAAAAAAAAAAAAAAAAAAAAAAAAAAAAAAAAAAAAAAAAAAAAAAAAAAAAAAAAAAAAAAAAAAAAAAAAAAAAAAAAAAAAAAAAAAAAAAAAAAAAAAAAAAAAAAAAAAAAAAAAAAAAAAAAAAAAAAAAAAAAAAAAAAAAAAAAAAAAAAAAAAAAAAAAAAAAAAAAAAAAAAAAAAAAAAAAAAAAAAAAAAAAAAAAAAAAAAAAAAAAAAAAAAAAAAAAAAAAAAAAAAAAAAAAAAAAAAAAAAAAAAAAAAAAAAAAAAAAAAAAAAAAAAAAAAAAAAAAAAAAAAAAAAAAAAAAAAAAAAAAAAAAAAAAAAAAAAAAAAAAAAAA////////////////////////////////////////////////////////////////////////////////////////////////////////x////////h8D/////+D8DAP///gPwBwAA///+AOAAQAD///4AgAQgAf///wCACAAB////gAAQAAH////AACAIAf///+4AgAQD//////wAAAP////4AAACA////4AAAAAD////AAAAAAP///8AAAAAQH///gAAAAAAP//+AAAAAAAf//8AAAAAAB//+AAAAAAAH//gAAAAAAAf/wAAAHwEAD/+AHgIAAAAH/wAeAAAAAAf8AB4AAAAAw/wBDgAAAADj/gAeAAAAAOP+AB4AAAAA4P8APgAgGACAf4g/APg+AIB//n8B/D8AjH///wH8PwCAf///APg/AMB///8A8A4AwD///wAAAAHAP///gAAAAcB///+AAAAB/////8AAAAH/////wAAAA//////gAAAH//////AAAAf/////8AAAD//////4AAAf//////wAAD///////wAAf///////gAP////////wP///////////////////////////////////////////////////////////////////////////////////////////////////8=;" vertex="1" parent="Hvadh7sFhpXeqMrMuhxV-1">
          <mxGeometry x="453.89" y="403" width="21" height="21" as="geometry" />
        </mxCell>
        <mxCell id="xf7ipCkXqZgZy6ZA4QqN-0" value="&lt;font&gt;EdgeShark&lt;/font&gt;" style="text;html=1;align=center;verticalAlign=middle;resizable=0;points=[];autosize=1;fontSize=14;fontFamily=Google Sans;fontStyle=0;fontColor=#00C9FF;fontSource=https%3A%2F%2Ffonts.googleapis.com%2Fcss%3Ffamily%3DGoogle%2BSans;" vertex="1" parent="Hvadh7sFhpXeqMrMuhxV-1">
          <mxGeometry x="421.89" y="428" width="85" height="29" as="geometry" />
        </mxCell>
      </root>
    </mxGraphModel>
  </diagram>
</mxfile>
